<?xml version="1.0" encoding="UTF-8"?>
<svg version="1.1" xmlns="http://www.w3.org/2000/svg" width="393" height="262">
<path d="M0 0 C129.69 0 259.38 0 393 0 C393 86.46 393 172.92 393 262 C263.31 262 133.62 262 0 262 C0 175.54 0 89.08 0 0 Z " fill="#FBFBFB" transform="translate(0,0)"/>
<path d="M0 0 C-1.875 4.875 -1.875 4.875 -3 6 C-2.9808873 7.92613542 -2.96065492 9.85226669 -2.93457031 11.77832031 C-2.94850747 23.23931023 -6.55708725 29.58206295 -14 38 C-17.65060851 41.83792884 -17.65060851 41.83792884 -19.375 46.6875 C-19.03910665 49.14983559 -19.03910665 49.14983559 -18 52 C-14.7 52.66 -11.4 53.32 -8 54 C-7.505 55.98 -7.505 55.98 -7 58 C-5.948125 57.505 -5.948125 57.505 -4.875 57 C-1.48193378 55.81980305 0.44145007 55.34638879 4 56 C6.68015584 57.95364435 8.46648196 60.06075708 10 63 C10.46717759 66.0755858 10.37726924 68.91896787 10 72 C7 73 7 73 3.5 72.4375 C-0.10714492 71.59937115 -0.10714492 71.59937115 -3 74 C-5.57956414 74.2926572 -8.1285287 74.37713309 -10.72265625 74.4609375 C-13.10511722 74.76054881 -13.10511722 74.76054881 -14.18359375 76.6640625 C-14.45300781 77.43492187 -14.72242188 78.20578125 -15 79 C-15.36867188 79.92039062 -15.73734375 80.84078125 -16.1171875 81.7890625 C-17.12425182 85.45192475 -17.19655163 88.5827636 -17.125 92.375 C-17.10695313 93.62023437 -17.08890625 94.86546875 -17.0703125 96.1484375 C-17.04710937 97.08945313 -17.02390625 98.03046875 -17 99 C-18.00417969 99.37511719 -19.00835937 99.75023437 -20.04296875 100.13671875 C-21.02523437 100.50434326 -21.02523437 100.50434326 -22.02734375 100.87939453 C-23.48400647 101.42432599 -24.94104665 101.96824938 -26.3984375 102.51123047 C-29.74678053 103.76247646 -33.07988769 105.03226764 -36.39453125 106.37109375 C-44.77112324 109.75334033 -53.21694032 111.98181299 -62 114 C-60.79618552 111.50638429 -59.54571278 109.31856917 -58 107 C-57.54227937 104.26127045 -57.54227937 104.26127045 -57.375 101.3125 C-57.30023438 100.31863281 -57.22546875 99.32476562 -57.1484375 98.30078125 C-57.09945312 97.54152344 -57.05046875 96.78226562 -57 96 C-56.09507812 95.63648438 -56.09507812 95.63648438 -55.171875 95.265625 C-48.85624344 92.67299563 -48.85624344 92.67299563 -44 88 C-43.2127322 85.8618034 -43.2127322 85.8618034 -43 84 C-43.7425 84.474375 -44.485 84.94875 -45.25 85.4375 C-47.61050015 86.77869327 -49.36648477 87.512312 -52 88 C-52.474375 87.195625 -52.94875 86.39125 -53.4375 85.5625 C-54.76900154 83.15246512 -54.76900154 83.15246512 -56 82 C-57.84599688 81.60545777 -59.70225822 81.25823134 -61.5625 80.9375 C-63.08037109 80.67259766 -63.08037109 80.67259766 -64.62890625 80.40234375 C-65.41136719 80.26957031 -66.19382813 80.13679688 -67 80 C-66.2575 81.051875 -66.2575 81.051875 -65.5 82.125 C-63.8063319 85.37119719 -63.74837685 87.39340156 -64 91 C-65.81181405 91.19401633 -67.62448532 91.38004375 -69.4375 91.5625 C-70.95150391 91.71912109 -70.95150391 91.71912109 -72.49609375 91.87890625 C-73.73552734 91.93884766 -73.73552734 91.93884766 -75 92 C-76 91 -76 91 -76.25 87.625 C-76 84 -76 84 -74.4375 82.5 C-73.963125 82.005 -73.48875 81.51 -73 81 C-73.23477199 77.35458155 -73.23477199 77.35458155 -74 74 C-78.3755863 74 -78.526455 74.09564173 -81.375 76.9375 C-84.50334843 79.7711004 -86.63925705 81 -91 81 C-93.375 80.0625 -93.375 80.0625 -95 79 C-95 77.35 -95 75.7 -95 74 C-94.13375 74.4640625 -94.13375 74.4640625 -93.25 74.9375 C-91.10046993 75.95255587 -89.35645632 76.69594112 -87 77 C-85.515 76.01 -85.515 76.01 -84 75 C-84 74.01 -84 73.02 -84 72 C-87.3 70.68 -90.6 69.36 -94 68 C-93.39130917 62.21743713 -91.2547933 57.29595579 -89 52 C-88.68933594 51.23171875 -88.37867187 50.4634375 -88.05859375 49.671875 C-80.21817344 30.90735442 -64.43784799 16.76164518 -47 7 C-46.27554688 6.5771875 -45.55109375 6.154375 -44.8046875 5.71875 C-31.4445577 -1.1970819 -14.58861024 -0.41116125 0 0 Z " fill="#153854" transform="translate(204,52)"/>
<path d="M0 0 C4.89412421 9.78824843 2.957325 30.06132252 -0.1953125 40.02734375 C-6.93118509 59.53364235 -18.62201403 77.90838384 -36.625 88.625 C-37.41551758 89.099375 -38.20603516 89.57375 -39.02050781 90.0625 C-45.44210668 93.83164275 -51.84529785 96.86708879 -59 99 C-60.03511719 99.31582031 -61.07023437 99.63164062 -62.13671875 99.95703125 C-69.55644035 101.88001235 -76.67440792 102.27364389 -84.3125 102.3125 C-85.231521 102.31805908 -86.15054199 102.32361816 -87.09741211 102.3293457 C-100.13387333 102.1915993 -112.56806937 98.15565495 -124 92 C-124 91.34 -124 90.68 -124 90 C-125.3303125 89.62875 -125.3303125 89.62875 -126.6875 89.25 C-130.18982013 87.92836976 -132.19753852 86.45215379 -135 84 C-135.54269531 83.57074219 -136.08539063 83.14148438 -136.64453125 82.69921875 C-138.13635 81.51484743 -139.57267883 80.26135359 -141 79 C-141 78.34 -141 77.68 -141 77 C-139.33710938 76.49339844 -139.33710938 76.49339844 -137.640625 75.9765625 C-136.17702702 75.52622466 -134.71348845 75.07569367 -133.25 74.625 C-132.52039063 74.40328125 -131.79078125 74.1815625 -131.0390625 73.953125 C-126.78956975 72.64031897 -126.78956975 72.64031897 -122.734375 70.8359375 C-121 70 -121 70 -117 70 C-117 70.66 -117 71.32 -117 72 C-116.25234375 71.99097656 -115.5046875 71.98195313 -114.734375 71.97265625 C-106.78603541 72.21193872 -106.78603541 72.21193872 -104.484375 74.51953125 C-103.5 76.375 -103.5 76.375 -102 80 C-101.443125 80.495 -100.88625 80.99 -100.3125 81.5 C-98.15396787 83.96689386 -98.29851898 86.83569879 -98 90 C-97.34 90 -96.68 90 -96 90 C-95.566875 90.969375 -95.13375 91.93875 -94.6875 92.9375 C-93.2985139 96.27731765 -93.2985139 96.27731765 -90 97 C-85.345203 97.3053818 -85.345203 97.3053818 -81 96 C-80.34786708 93.97536745 -80.34786708 93.97536745 -80 92 C-80.7425 91.731875 -81.485 91.46375 -82.25 91.1875 C-85.04136083 89.98213964 -86.84385424 89.14094578 -89 87 C-89.81640214 82.63464971 -89.74321715 78.23542512 -89.74121094 73.80371094 C-89.74995255 71.63676142 -89.82250686 69.47800246 -89.8984375 67.3125 C-90.06655513 57.31763789 -90.06655513 57.31763789 -87.45166016 54.0871582 C-85.35646723 52.77438648 -83.30173834 51.89567212 -81 51 C-79.62593229 50.18337398 -78.26859113 49.33792862 -76.9296875 48.46484375 C-74.89496103 47.19657012 -72.86023238 45.92831595 -70.82421875 44.66210938 C-70.15777344 44.24638672 -69.49132812 43.83066406 -68.8046875 43.40234375 C-68.16112305 43.00257324 -67.51755859 42.60280273 -66.85449219 42.19091797 C-65.08963914 41.05756447 -63.3982765 39.85228785 -61.6953125 38.62890625 C-60.80585938 38.09136719 -59.91640625 37.55382812 -59 37 C-55.54410178 38.15196607 -54.54217204 39.72577239 -52.328125 42.5 C-50.47696619 44.59072054 -48.51063781 45.81075051 -46 47 C-45.01 47 -44.02 47 -43 47 C-42.88858122 41.46169484 -42.88858122 41.46169484 -43.625 36 C-44.12220564 32.02235484 -43.58273366 28.65198162 -42 25 C-39.7675539 22.90820399 -37.90393013 21.42977197 -35.375 19.8125 C-34.0205184 18.88707056 -32.66906288 17.95720003 -31.3203125 17.0234375 C-30.61551758 16.5397168 -29.91072266 16.05599609 -29.18457031 15.55761719 C-25.39946454 12.85880462 -21.83220863 9.89741417 -18.25 6.9375 C-16.92246913 5.84172773 -15.59438433 4.74662604 -14.265625 3.65234375 C-13.42692871 2.95612915 -13.42692871 2.95612915 -12.57128906 2.24584961 C-7.77682716 -1.55560146 -5.80664153 -1.1238661 0 0 Z " fill="#153853" transform="translate(276,119)"/>
<path d="M0 0 C0.66 0 1.32 0 2 0 C0.66714203 3.02451527 -0.71386549 4.89261675 -3.23046875 7.0234375 C-3.86919922 7.57 -4.50792969 8.1165625 -5.16601562 8.6796875 C-5.83310547 9.23914063 -6.50019531 9.79859375 -7.1875 10.375 C-7.83525391 10.92671875 -8.48300781 11.4784375 -9.15039062 12.046875 C-10.44891601 13.15211339 -11.75082357 14.25339094 -13.05615234 15.35058594 C-14.37563852 16.47021023 -15.68297517 17.60428052 -16.97900391 18.75097656 C-17.60081543 19.29979492 -18.22262695 19.84861328 -18.86328125 20.4140625 C-19.41927002 20.91115723 -19.97525879 21.40825195 -20.5480957 21.92041016 C-22 23 -22 23 -24 23 C-24 23.66 -24 24.32 -24 25 C-25.56940801 26.43812673 -27.20874035 27.8003005 -28.875 29.125 C-29.89078125 29.93710938 -30.9065625 30.74921875 -31.953125 31.5859375 C-33.46132813 32.78089844 -33.46132813 32.78089844 -35 34 C-35.77859375 34.63164063 -36.5571875 35.26328125 -37.359375 35.9140625 C-48.57610583 45.00348231 -60.02048004 53.93511893 -72 62 C-72.55896973 62.37721191 -73.11793945 62.75442383 -73.69384766 63.14306641 C-77.52320692 65.72383101 -81.36563535 68.28397548 -85.22070312 70.82617188 C-86.81097877 71.87529993 -88.39790681 72.92949824 -89.984375 73.984375 C-95.3098115 77.46283931 -100.70695312 80.43278703 -106.43359375 83.1953125 C-110.14389756 85.07281563 -113.74754888 87.09286812 -117.36621094 89.1394043 C-124.59754558 93.21825777 -131.47928125 96.94221389 -139.50390625 99.24609375 C-141.8833791 99.96477647 -143.91135179 100.88255378 -146.125 102 C-163.09106931 109.89046973 -186.07348886 111.35328793 -204 107 C-207.6605058 104.92016716 -210.46577794 102.94581024 -212.8125 99.4375 C-213.21082031 98.85871094 -213.60914063 98.27992188 -214.01953125 97.68359375 C-216.37019183 93.64720048 -216.45350457 89.53504572 -216 85 C-213.24046305 76.41477393 -206.92653915 68.71260961 -200 63 C-199.34 63 -198.68 63 -198 63 C-199.20381448 65.49361571 -200.45428722 67.68143083 -202 70 C-202.67884003 74.28616436 -202.8210827 77.85634909 -200.25 81.4375 C-196.1854435 84.26010868 -193.34752115 85.25486635 -188.359375 85.4140625 C-187.28945312 85.45273438 -186.21953125 85.49140625 -185.1171875 85.53125 C-183.45042969 85.57765625 -183.45042969 85.57765625 -181.75 85.625 C-180.62335938 85.66367188 -179.49671875 85.70234375 -178.3359375 85.7421875 C-175.55745452 85.83637336 -172.77897666 85.92199586 -170 86 C-170 85.34 -170 84.68 -170 84 C-169.01644531 83.85304688 -168.03289062 83.70609375 -167.01953125 83.5546875 C-158.5486035 82.21412152 -150.31224384 80.41618399 -142.0625 78.0625 C-141.21212158 77.82192871 -140.36174316 77.58135742 -139.4855957 77.33349609 C-134.29255981 75.81286944 -129.30568841 73.98595912 -124.30151367 71.93041992 C-121.28147243 70.70952492 -118.2103259 69.66823969 -115.125 68.625 C-107.71200533 66.01102917 -100.75797905 62.68193201 -93.9140625 58.82421875 C-92 58 -92 58 -88 58 C-88 57.34 -88 56.68 -88 56 C-84.02864583 54.01432292 -80.05729167 52.02864583 -76.0859375 50.04296875 C-75.39467773 49.69258545 -74.70341797 49.34220215 -73.99121094 48.98120117 C-72.20013114 48.09861783 -70.37112064 47.29402971 -68.5390625 46.5 C-65.88794022 45.26603509 -65.88794022 45.26603509 -65.125 43.01953125 C-64.81668799 37.57589738 -65.32589014 33.20834179 -67 28 C-67.33 27.67 -67.66 27.34 -68 27 C-70.02408755 27.09002398 -72.04544287 27.24641038 -74.0625 27.4375 C-75.16722656 27.53933594 -76.27195313 27.64117187 -77.41015625 27.74609375 C-78.69212891 27.87177734 -78.69212891 27.87177734 -80 28 C-80.125 24.625 -80.125 24.625 -80 21 C-79.34 20.34 -78.68 19.68 -78 19 C-72.43181818 19.56818182 -72.43181818 19.56818182 -71 21 C-69.783125 21.0825 -68.56625 21.165 -67.3125 21.25 C-62.49283388 21.78647989 -60.3945261 23.6054739 -57 27 C-56.01 28.485 -56.01 28.485 -55 30 C-51.43230448 30.73606499 -51.43230448 30.73606499 -48 31 C-49.12697043 26.03088634 -49.12697043 26.03088634 -52 22 C-52 20.68 -52 19.36 -52 18 C-49.375 17.4375 -49.375 17.4375 -46 18 C-43.60079753 20.7720515 -41.78671477 23.80672254 -40 27 C-40.33 27.66 -40.66 28.32 -41 29 C-35.70486468 26.44553362 -30.74657156 23.72336311 -25.875 20.4375 C-25.24045898 20.013479 -24.60591797 19.58945801 -23.95214844 19.15258789 C-18.59265357 15.51711244 -13.49478516 11.58748247 -8.47998047 7.49194336 C-5.98221443 5.46633854 -4.0815471 4.02718237 -1 3 C-0.67 2.01 -0.34 1.02 0 0 Z " fill="#20728F" transform="translate(296,87)"/>
<path d="M0 0 C0.66 0 1.32 0 2 0 C6.39963122 15.54536366 8.17131926 38.48604221 3 54 C2.34 54 1.68 54 1 54 C0.938125 55.258125 0.87625 56.51625 0.8125 57.8125 C0.18707939 63.76347184 -2.3233647 68.71586757 -5 74 C-5.66 74 -6.32 74 -7 74 C-7.185625 74.804375 -7.37125 75.60875 -7.5625 76.4375 C-12.37471909 88.36343427 -24.19353138 99.00371419 -34 107 C-34.82842407 107.68715088 -34.82842407 107.68715088 -35.67358398 108.38818359 C-56.07838347 124.60305922 -82.74204612 128.88934166 -108 127 C-114.14605606 126.10388386 -120.14321684 124.5230423 -126.125 122.875 C-126.7953125 122.69324219 -127.465625 122.51148438 -128.15625 122.32421875 C-129.77163543 121.88575699 -131.38594317 121.44332761 -133 121 C-133 120.34 -133 119.68 -133 119 C-135.64 118.34 -138.28 117.68 -141 117 C-141 116.34 -141 115.68 -141 115 C-142.0209375 114.9071875 -142.0209375 114.9071875 -143.0625 114.8125 C-146.95451162 113.73598615 -150.03444754 111.74334968 -153 109 C-153 108.34 -153 107.68 -153 107 C-153.680625 106.814375 -154.36125 106.62875 -155.0625 106.4375 C-158.61656408 104.69827715 -160.76530492 102.42103843 -163.44921875 99.55859375 C-164.93510225 97.89969455 -164.93510225 97.89969455 -167 97 C-167 96.34 -167 95.68 -167 95 C-163.62325775 96.52070379 -160.96690803 98.52828135 -158.0625 100.8125 C-152.1355324 105.20966921 -145.96979909 107.69520157 -139 110 C-139 110.66 -139 111.32 -139 112 C-136.92860044 112.45641007 -134.85681178 112.9110902 -132.78369141 113.35961914 C-130.93206057 113.78558193 -129.0895917 114.25359405 -127.25927734 114.76342773 C-118.60416888 117.06838998 -110.49733558 117.40249776 -101.61499023 117.28125 C-99.30501076 117.24989835 -96.99571905 117.240239 -94.68554688 117.234375 C-87.07223866 117.19396173 -79.5648072 116.9352304 -72 116 C-72 115.34 -72 114.68 -72 114 C-66.555 113.01 -66.555 113.01 -61 112 C-61 111.34 -61 110.68 -61 110 C-60.41734375 109.8040625 -59.8346875 109.608125 -59.234375 109.40625 C-34.93481768 100.54226054 -18.03648232 79.54460918 -7 57 C-6.47599609 56.08154297 -6.47599609 56.08154297 -5.94140625 55.14453125 C-4.46798808 51.78807242 -3.74693985 48.24841978 -2.9375 44.6875 C-2.76412109 43.95337891 -2.59074219 43.21925781 -2.41210938 42.46289062 C-0.82825792 35.62380792 0.1289587 29.01570751 0.09765625 21.97265625 C0.09443359 20.68681641 0.09121094 19.40097656 0.08789062 18.07617188 C0.07953802 16.73828055 0.07107311 15.40038993 0.0625 14.0625 C0.05747659 12.69726726 0.05291517 11.33203274 0.04882812 9.96679688 C0.03708851 6.64448543 0.02066679 3.32226592 0 0 Z " fill="#C0C0C2" transform="translate(289,113)"/>
<path d="M0 0 C1.17925049 -0.00153076 2.35850098 -0.00306152 3.57348633 -0.00463867 C11.18154307 0.09044212 18.41748135 0.88349627 25.875 2.375 C27.00035156 2.59800781 28.12570313 2.82101563 29.28515625 3.05078125 C39.96361392 5.61424016 48.99951269 9.95599023 57.875 16.375 C58.81214844 17.03371094 59.74929687 17.69242188 60.71484375 18.37109375 C70.9752634 25.77919597 82.0973372 34.8196744 87.875 46.375 C87.545 47.365 87.215 48.355 86.875 49.375 C86.36453125 48.69695312 85.8540625 48.01890625 85.328125 47.3203125 C70.59783685 28.46345426 47.02602913 11.91524109 22.875 8.375 C9.28473088 7.20501016 -4.51309315 7.86416054 -18.125 8.375 C-18.125 9.035 -18.125 9.695 -18.125 10.375 C-19.7646875 10.74625 -19.7646875 10.74625 -21.4375 11.125 C-30.22161421 13.35195853 -38.07209031 16.65997057 -45.91015625 21.203125 C-48.125 22.375 -48.125 22.375 -50.125 22.375 C-50.125 23.035 -50.125 23.695 -50.125 24.375 C-51.84765625 25.671875 -51.84765625 25.671875 -54.1875 27.125 C-67.72084909 35.89308533 -79.93988587 49.57583863 -85.1875 65 C-86.28304289 68.21183257 -87.22698812 70.52798218 -89.125 73.375 C-90.15912235 76.32253125 -90.90229838 79.35259924 -91.6875 82.375 C-91.91074951 83.22553955 -92.13399902 84.0760791 -92.36401367 84.95239258 C-93.91671959 91.06955359 -94.96859276 97.04761621 -95.125 103.375 C-96.61 103.87 -96.61 103.87 -98.125 104.375 C-98.38703391 95.48040451 -97.82720275 87.110833 -96.125 78.375 C-95.93035156 77.364375 -95.73570313 76.35375 -95.53515625 75.3125 C-93.85305395 67.66839016 -90.79399332 61.25067381 -87.125 54.375 C-86.53960479 53.06341833 -85.95603295 51.75101998 -85.375 50.4375 C-80.56010138 40.84766043 -72.31601878 31.20673334 -64.125 24.375 C-63.465 24.375 -62.805 24.375 -62.125 24.375 C-62.125 23.715 -62.125 23.055 -62.125 22.375 C-59.86582866 20.67309092 -57.61618149 19.10302678 -55.25 17.5625 C-54.56470215 17.11253662 -53.8794043 16.66257324 -53.17333984 16.19897461 C-46.01990464 11.56410623 -38.79873594 7.58047608 -30.59765625 5.1328125 C-28.06397408 4.39282472 -28.06397408 4.39282472 -25.43359375 3.3046875 C-16.94382753 0.26579747 -8.95993006 0.0064481 0 0 Z " fill="#C1C2C4" transform="translate(188.125,31.625)"/>
<path d="M0 0 C0.99 0.495 0.99 0.495 2 1 C1.175 1.886875 0.35 2.77375 -0.5 3.6875 C-2.29957172 5.85308631 -2.95873793 6.71804251 -3.375 9.5625 C-2.9902249 12.06353814 -2.56392652 14.53282149 -2 17 C-2.33 16.34 -2.66 15.68 -3 15 C-7.84636186 14.50678618 -10.78372356 14.39655897 -14.71875 17.421875 C-15.99485344 18.51316922 -17.25468383 19.62370043 -18.5 20.75 C-19.88570431 21.93890323 -21.2737987 23.12502546 -22.6640625 24.30859375 C-23.37208008 24.91815918 -24.08009766 25.52772461 -24.80957031 26.15576172 C-28.39669796 29.17595367 -32.12406349 32.00015243 -35.875 34.8125 C-36.55884766 35.33360352 -37.24269531 35.85470703 -37.94726562 36.39160156 C-42.75683263 40 -42.75683263 40 -45 40 C-44.9690625 41.299375 -44.9690625 41.299375 -44.9375 42.625 C-45 46 -45 46 -45.5625 49.25 C-46.26610393 51.95294822 -46.26610393 51.95294822 -45 54 C-44.86584528 56.6723621 -44.95681459 59.32250488 -45 62 C-46.625 62.75 -46.625 62.75 -49 63 C-53.80848468 60.44229538 -56.73181804 57.22941195 -60 53 C-64.06631031 54.4731919 -67.5296844 56.45105621 -71.1875 58.75 C-76.08647446 61.81133459 -81.01130312 64.82067527 -85.9765625 67.7734375 C-87.67843084 68.80507198 -89.34411005 69.89607337 -91 71 C-91.67897323 75.34720147 -91.64253462 79.72710541 -91.66577148 84.12084961 C-91.68733989 86.29635071 -91.76742952 88.46473091 -91.84960938 90.63867188 C-92.22611892 97.87650847 -92.22611892 97.87650847 -89.17041016 104.09521484 C-87.13560758 105.36870589 -85.28543206 106.28194305 -83 107 C-83.375 109.4375 -83.375 109.4375 -84 112 C-87.57455761 113.7872788 -91.52011319 113.39996941 -95.3125 112.375 C-97.79588562 110.3515006 -98.209712 108.02943733 -99 105 C-99.66 105 -100.32 105 -101 105 C-101.391875 103.80375 -101.78375 102.6075 -102.1875 101.375 C-103.30958201 98.32703683 -104.53363555 96.11671644 -106.6875 93.6875 C-109 91 -109 91 -109 88 C-109.62648438 88.01160156 -110.25296875 88.02320313 -110.8984375 88.03515625 C-111.71570313 88.04417969 -112.53296875 88.05320312 -113.375 88.0625 C-114.18710938 88.07410156 -114.99921875 88.08570313 -115.8359375 88.09765625 C-118 88 -118 88 -120 87 C-120 86.34 -120 85.68 -120 85 C-120.97839844 85.33773437 -121.95679688 85.67546875 -122.96484375 86.0234375 C-134.89513642 90.09507987 -134.89513642 90.09507987 -140.375 91.1875 C-142.169375 91.5896875 -142.169375 91.5896875 -144 92 C-144.33 92.66 -144.66 93.32 -145 94 C-145 93.01 -145 92.02 -145 91 C-145.96873047 91.2165625 -145.96873047 91.2165625 -146.95703125 91.4375 C-159.71650026 93.95099321 -173.36768753 94.31339344 -186 91 C-182.96039092 90.06950742 -180.70007829 90.00892691 -177.5625 90.4375 C-157.71562903 92.60734741 -137.17136587 88.75157044 -119.1875 79.9921875 C-117.21782929 79.09880114 -115.26242398 78.37295742 -113.2265625 77.6484375 C-109.00943534 76.08578035 -105.24454966 74.02351838 -101.375 71.75 C-96.2007609 68.76397466 -91.00588434 65.97145292 -85.625 63.375 C-80.53426716 60.8728731 -75.98386218 58.09138922 -71.4140625 54.7421875 C-68.89732697 52.92590263 -66.31873902 51.27047224 -63.6875 49.625 C-52.80311173 42.74582202 -42.58323058 35.24684792 -32.53369141 27.21777344 C-30.52100071 25.61966754 -28.47948515 24.06042009 -26.4375 22.5 C-23.77344513 20.44415389 -21.18662047 18.31899865 -18.6328125 16.12890625 C-17.74831421 15.3709375 -17.74831421 15.3709375 -16.84594727 14.59765625 C-15.67307212 13.58806845 -14.50415587 12.57385988 -13.33959961 11.5546875 C-9.21797928 8 -9.21797928 8 -7 8 C-7 7.34 -7 6.68 -7 6 C-5.46875 4.4921875 -5.46875 4.4921875 -3.5 2.875 C-2.8503125 2.33617188 -2.200625 1.79734375 -1.53125 1.2421875 C-0.77328125 0.62730469 -0.77328125 0.62730469 0 0 Z " fill="#F5F7F7" transform="translate(279,104)"/>
<path d="M0 0 C0.66 0 1.32 0 2 0 C0.66714203 3.02451527 -0.71386549 4.89261675 -3.23046875 7.0234375 C-3.86919922 7.57 -4.50792969 8.1165625 -5.16601562 8.6796875 C-5.83310547 9.23914063 -6.50019531 9.79859375 -7.1875 10.375 C-7.83525391 10.92671875 -8.48300781 11.4784375 -9.15039062 12.046875 C-10.44891601 13.15211339 -11.75082357 14.25339094 -13.05615234 15.35058594 C-14.37563852 16.47021023 -15.68297517 17.60428052 -16.97900391 18.75097656 C-17.60081543 19.29979492 -18.22262695 19.84861328 -18.86328125 20.4140625 C-19.41927002 20.91115723 -19.97525879 21.40825195 -20.5480957 21.92041016 C-22 23 -22 23 -24 23 C-24 23.66 -24 24.32 -24 25 C-25.56940801 26.43812673 -27.20874035 27.8003005 -28.875 29.125 C-29.89078125 29.93710938 -30.9065625 30.74921875 -31.953125 31.5859375 C-32.95859375 32.38257813 -33.9640625 33.17921875 -35 34 C-35.77859375 34.63164063 -36.5571875 35.26328125 -37.359375 35.9140625 C-48.57800948 45.00502492 -60.02704076 53.92185883 -72 62 C-72.57492188 62.39316406 -73.14984375 62.78632813 -73.7421875 63.19140625 C-75.69917508 64.52934674 -77.66136913 65.85933196 -79.625 67.1875 C-80.2348877 67.60410889 -80.84477539 68.02071777 -81.47314453 68.44995117 C-85.82239899 71.36719109 -90.27820608 73.73291351 -95 76 C-95.33 75.01 -95.66 74.02 -96 73 C-98.00016466 71.79117904 -98.00016466 71.79117904 -100 71 C-99.01 70.01 -99.01 70.01 -98 69 C-98.33 68.01 -98.66 67.02 -99 66 C-97.68 64.68 -96.36 63.36 -95 62 C-97.31 62.66 -99.62 63.32 -102 64 C-100.67613295 61.3522659 -99.36742791 61.0592562 -96.6875 59.875 C-95.90761719 59.52179688 -95.12773437 59.16859375 -94.32421875 58.8046875 C-92 58 -92 58 -88 58 C-88 57.34 -88 56.68 -88 56 C-84.02864583 54.01432292 -80.05729167 52.02864583 -76.0859375 50.04296875 C-75.39467773 49.69258545 -74.70341797 49.34220215 -73.99121094 48.98120117 C-72.20013114 48.09861783 -70.37112064 47.29402971 -68.5390625 46.5 C-65.88794022 45.26603509 -65.88794022 45.26603509 -65.125 43.01953125 C-64.81668799 37.57589738 -65.32589014 33.20834179 -67 28 C-67.33 27.67 -67.66 27.34 -68 27 C-70.02408755 27.09002398 -72.04544287 27.24641038 -74.0625 27.4375 C-75.16722656 27.53933594 -76.27195313 27.64117187 -77.41015625 27.74609375 C-78.69212891 27.87177734 -78.69212891 27.87177734 -80 28 C-80.125 24.625 -80.125 24.625 -80 21 C-79.34 20.34 -78.68 19.68 -78 19 C-72.43181818 19.56818182 -72.43181818 19.56818182 -71 21 C-69.783125 21.0825 -68.56625 21.165 -67.3125 21.25 C-62.49283388 21.78647989 -60.3945261 23.6054739 -57 27 C-56.34 27.99 -55.68 28.98 -55 30 C-51.43230448 30.73606499 -51.43230448 30.73606499 -48 31 C-49.12697043 26.03088634 -49.12697043 26.03088634 -52 22 C-52 20.68 -52 19.36 -52 18 C-49.375 17.4375 -49.375 17.4375 -46 18 C-43.60079753 20.7720515 -41.78671477 23.80672254 -40 27 C-40.33 27.66 -40.66 28.32 -41 29 C-35.70486468 26.44553362 -30.74657156 23.72336311 -25.875 20.4375 C-25.24045898 20.013479 -24.60591797 19.58945801 -23.95214844 19.15258789 C-18.59265357 15.51711244 -13.49478516 11.58748247 -8.47998047 7.49194336 C-5.98221443 5.46633854 -4.0815471 4.02718237 -1 3 C-0.67 2.01 -0.34 1.02 0 0 Z " fill="#237490" transform="translate(296,87)"/>
<path d="M0 0 C0 0.66 0 1.32 0 2 C0.74765625 1.99097656 1.4953125 1.98195312 2.265625 1.97265625 C10.21396459 2.21193872 10.21396459 2.21193872 12.515625 4.51953125 C13.5 6.375 13.5 6.375 15 10 C15.556875 10.495 16.11375 10.99 16.6875 11.5 C18.84603213 13.96689386 18.70148102 16.83569879 19 20 C19.66 20 20.32 20 21 20 C21.433125 20.969375 21.86625 21.93875 22.3125 22.9375 C23.7014861 26.27731765 23.7014861 26.27731765 27 27 C28.56118428 27.06740865 30.1250252 27.08514456 31.6875 27.0625 C32.49574219 27.05347656 33.30398437 27.04445312 34.13671875 27.03515625 C34.75160156 27.02355469 35.36648437 27.01195312 36 27 C36 27.66 36 28.32 36 29 C32.04 29.495 32.04 29.495 28 30 C35.59 30 43.18 30 51 30 C51 30.33 51 30.66 51 31 C45.02181305 32.03500467 39.18496704 32.18338876 33.125 32.1875 C32.18269531 32.19974609 31.24039063 32.21199219 30.26953125 32.22460938 C17.06228553 32.2520103 4.58640132 28.23883148 -7 22 C-7 21.34 -7 20.68 -7 20 C-7.886875 19.7525 -8.77375 19.505 -9.6875 19.25 C-13.18982013 17.92836976 -15.19753852 16.45215379 -18 14 C-18.54269531 13.57074219 -19.08539063 13.14148438 -19.64453125 12.69921875 C-21.13635 11.51484743 -22.57267883 10.26135359 -24 9 C-24 8.34 -24 7.68 -24 7 C-22.89140625 6.66226563 -21.7828125 6.32453125 -20.640625 5.9765625 C-19.17702702 5.52622466 -17.71348845 5.07569367 -16.25 4.625 C-15.15558594 4.29242188 -15.15558594 4.29242188 -14.0390625 3.953125 C-9.78956975 2.64031897 -9.78956975 2.64031897 -5.734375 0.8359375 C-4 0 -4 0 0 0 Z " fill="#1A3B56" transform="translate(159,189)"/>
<path d="M0 0 C0.66 0 1.32 0 2 0 C0.66714203 3.02451527 -0.71386549 4.89261675 -3.23046875 7.0234375 C-3.86919922 7.57 -4.50792969 8.1165625 -5.16601562 8.6796875 C-5.83310547 9.23914063 -6.50019531 9.79859375 -7.1875 10.375 C-7.83525391 10.92671875 -8.48300781 11.4784375 -9.15039062 12.046875 C-10.44891601 13.15211339 -11.75082357 14.25339094 -13.05615234 15.35058594 C-14.37563852 16.47021023 -15.68297517 17.60428052 -16.97900391 18.75097656 C-17.60081543 19.29979492 -18.22262695 19.84861328 -18.86328125 20.4140625 C-19.41927002 20.91115723 -19.97525879 21.40825195 -20.5480957 21.92041016 C-22 23 -22 23 -24 23 C-24 23.66 -24 24.32 -24 25 C-25.61048394 26.48022421 -27.29102118 27.88467453 -29 29.25 C-29.99644531 30.04792969 -30.99289062 30.84585938 -32.01953125 31.66796875 C-35.63994409 34.50071641 -39.2882731 37.28799324 -43 40 C-42.67 37.69 -42.34 35.38 -42 33 C-47.30213359 35.13050622 -52.07556903 37.6959095 -56.9375 40.6875 C-57.62134766 41.10322266 -58.30519531 41.51894531 -59.00976562 41.94726562 C-60.67565646 42.96077963 -62.33818694 43.97981361 -64 45 C-66 42 -66 42 -65.5 39.3125 C-64.84329084 34.96180185 -65.71997226 32.19564647 -67 28 C-67.33 27.67 -67.66 27.34 -68 27 C-70.02408755 27.09002398 -72.04544287 27.24641038 -74.0625 27.4375 C-75.16722656 27.53933594 -76.27195313 27.64117187 -77.41015625 27.74609375 C-78.69212891 27.87177734 -78.69212891 27.87177734 -80 28 C-80.125 24.625 -80.125 24.625 -80 21 C-79.34 20.34 -78.68 19.68 -78 19 C-72.43181818 19.56818182 -72.43181818 19.56818182 -71 21 C-69.783125 21.0825 -68.56625 21.165 -67.3125 21.25 C-62.49283388 21.78647989 -60.3945261 23.6054739 -57 27 C-56.34 27.99 -55.68 28.98 -55 30 C-51.43230448 30.73606499 -51.43230448 30.73606499 -48 31 C-49.12697043 26.03088634 -49.12697043 26.03088634 -52 22 C-52 20.68 -52 19.36 -52 18 C-49.375 17.4375 -49.375 17.4375 -46 18 C-43.60079753 20.7720515 -41.78671477 23.80672254 -40 27 C-40.33 27.66 -40.66 28.32 -41 29 C-35.70486468 26.44553362 -30.74657156 23.72336311 -25.875 20.4375 C-25.24045898 20.013479 -24.60591797 19.58945801 -23.95214844 19.15258789 C-18.59265357 15.51711244 -13.49478516 11.58748247 -8.47998047 7.49194336 C-5.98221443 5.46633854 -4.0815471 4.02718237 -1 3 C-0.67 2.01 -0.34 1.02 0 0 Z " fill="#347D96" transform="translate(296,87)"/>
<path d="M0 0 C0.97582031 0.03609375 1.95164062 0.0721875 2.95703125 0.109375 C4.06111328 0.17898437 4.06111328 0.17898437 5.1875 0.25 C2.55666473 6.26333777 -2.54530183 10.85480113 -8.0625 14.25 C-12.21020024 17.26650927 -14.13661328 21.44404605 -15.328125 26.390625 C-15.94362249 28.75334119 -16.92476013 29.7398081 -18.8125 31.25 C-19.4725 31.25 -20.1325 31.25 -20.8125 31.25 C-20.32671457 28.12709365 -19.8138988 25.25419641 -18.8125 22.25 C-19.4422876 22.62286133 -20.0720752 22.99572266 -20.72094727 23.37988281 C-23.60530971 25.08713289 -26.49015087 26.79357246 -29.375 28.5 C-30.36564453 29.08652344 -31.35628906 29.67304687 -32.37695312 30.27734375 C-37.5007009 33.30733413 -42.6334584 36.31545188 -47.8125 39.25 C-47.3175 36.28 -47.3175 36.28 -46.8125 33.25 C-47.8025 32.59 -48.7925 31.93 -49.8125 31.25 C-49.8125 30.59 -49.8125 29.93 -49.8125 29.25 C-49.09964844 29.270625 -48.38679688 29.29125 -47.65234375 29.3125 C-41.64820258 29.22250658 -41.64820258 29.22250658 -36.5234375 26.40234375 C-34.38274799 23.97081042 -34.38274799 23.97081042 -31.8125 20.25 C-38.0825 20.25 -44.3525 20.25 -50.8125 20.25 C-50.8125 19.59 -50.8125 18.93 -50.8125 18.25 C-48.94658203 17.97736328 -48.94658203 17.97736328 -47.04296875 17.69921875 C-31.07924914 15.31870631 -20.55087012 13.23564586 -8.38671875 2.01171875 C-5.3042768 -0.09781284 -3.68677895 -0.17767609 0 0 Z " fill="#2B7894" transform="translate(349.8125,45.75)"/>
<path d="M0 0 C0.99 0.495 0.99 0.495 2 1 C0.7625 2.3303125 0.7625 2.3303125 -0.5 3.6875 C-2.29957172 5.85308631 -2.95873793 6.71804251 -3.375 9.5625 C-2.9902249 12.06353814 -2.56392652 14.53282149 -2 17 C-2.495 16.01 -2.495 16.01 -3 15 C-7.84636186 14.50678618 -10.78372356 14.39655897 -14.71875 17.421875 C-15.99485344 18.51316922 -17.25468383 19.62370043 -18.5 20.75 C-19.88570431 21.93890323 -21.2737987 23.12502546 -22.6640625 24.30859375 C-23.37208008 24.91815918 -24.08009766 25.52772461 -24.80957031 26.15576172 C-28.39669796 29.17595367 -32.12406349 32.00015243 -35.875 34.8125 C-36.55884766 35.33360352 -37.24269531 35.85470703 -37.94726562 36.39160156 C-42.75683263 40 -42.75683263 40 -45 40 C-44.979375 40.86625 -44.95875 41.7325 -44.9375 42.625 C-45 46 -45 46 -45.5625 49.25 C-46.26610393 51.95294822 -46.26610393 51.95294822 -45 54 C-44.86584528 56.6723621 -44.95681459 59.32250488 -45 62 C-46.625 62.75 -46.625 62.75 -49 63 C-53.80848468 60.44229538 -56.73181804 57.22941195 -60 53 C-64.06631031 54.4731919 -67.5296844 56.45105621 -71.1875 58.75 C-72.33852873 59.46356253 -73.48957054 60.17710397 -74.640625 60.890625 C-76.72319826 62.19828728 -78.79782949 63.51880716 -80.859375 64.859375 C-88.68486446 69.83923193 -88.68486446 69.83923193 -94 69 C-92.4730447 65.94608939 -89.53627597 65.20265628 -86.5625 63.8125 C-81.14914761 61.19816317 -76.27440653 58.30432889 -71.4140625 54.7421875 C-68.89732697 52.92590263 -66.31873902 51.27047224 -63.6875 49.625 C-52.80311173 42.74582202 -42.58323058 35.24684792 -32.53369141 27.21777344 C-30.52100071 25.61966754 -28.47948515 24.06042009 -26.4375 22.5 C-23.77344513 20.44415389 -21.18662047 18.31899865 -18.6328125 16.12890625 C-18.04314697 15.62359375 -17.45348145 15.11828125 -16.84594727 14.59765625 C-15.67307212 13.58806845 -14.50415587 12.57385988 -13.33959961 11.5546875 C-9.21797928 8 -9.21797928 8 -7 8 C-7 7.34 -7 6.68 -7 6 C-5.46875 4.4921875 -5.46875 4.4921875 -3.5 2.875 C-2.8503125 2.33617188 -2.200625 1.79734375 -1.53125 1.2421875 C-0.77328125 0.62730469 -0.77328125 0.62730469 0 0 Z " fill="#EBF0F2" transform="translate(279,104)"/>
<path d="M0 0 C3.99534208 0.57076315 6.588173 1.90041415 10 4 C12.19130534 4.69579454 12.19130534 4.69579454 14 5 C14.33 7.31 14.66 9.62 15 12 C15.66 11.67 16.32 11.34 17 11 C17 12.32 17 13.64 17 15 C13.78571429 18 13.78571429 18 11 18 C10.67 17.67 10.34 17.34 10 17 C9.67 17.99 9.34 18.98 9 20 C9.66 20 10.32 20 11 20 C11 20.66 11 21.32 11 22 C12.32 22 13.64 22 15 22 C15 22.66 15 23.32 15 24 C13.02 23.67 11.04 23.34 9 23 C9.495 23.70125 9.99 24.4025 10.5 25.125 C12.1936681 28.37119719 12.25162315 30.39340156 12 34 C10.18818595 34.19401633 8.37551468 34.38004375 6.5625 34.5625 C5.04849609 34.71912109 5.04849609 34.71912109 3.50390625 34.87890625 C2.26447266 34.93884766 2.26447266 34.93884766 1 35 C0 34 0 34 -0.25 30.625 C0.03149473 26.54332635 0.30241006 26.58968635 3 24 C3.36760731 21.67182036 3.70241581 19.3381615 4 17 C4.66 16.34 5.32 15.68 6 15 C6.16677282 11.41656024 6.16677282 11.41656024 6 8 C4.329375 8.061875 4.329375 8.061875 2.625 8.125 C-1 8 -1 8 -3 6 C-3 5.01 -3 4.02 -3 3 C-2.34 3 -1.68 3 -1 3 C-0.67 2.01 -0.34 1.02 0 0 Z " fill="#1D3B54" transform="translate(128,109)"/>
<path d="M0 0 C0.99 0 1.98 0 3 0 C3.93345431 2.87216711 4.50137631 5.00805291 3.09375 7.79296875 C2.20654818 9.1048373 1.31005996 10.41045539 0.40625 11.7109375 C-1.69415096 15.12992351 -2.84786498 18.78781391 -4.10546875 22.58203125 C-5 25 -5 25 -7 28 C-8.03412235 30.94753125 -8.77729838 33.97759924 -9.5625 37 C-9.78574951 37.85053955 -10.00899902 38.7010791 -10.23901367 39.57739258 C-11.79171959 45.69455359 -12.84359276 51.67261621 -13 58 C-14.485 58.495 -14.485 58.495 -16 59 C-16.26203391 50.10540451 -15.70220275 41.735833 -14 33 C-13.80535156 31.989375 -13.61070313 30.97875 -13.41015625 29.9375 C-11.72959719 22.30040322 -8.68626892 15.86109216 -5 9 C-4.2237528 7.44018252 -3.45213275 5.87804369 -2.6875 4.3125 C-1 1 -1 1 0 0 Z " fill="#C1C2C4" transform="translate(106,77)"/>
<path d="M0 0 C5.56818182 0.56818182 5.56818182 0.56818182 7 2 C8.216875 2.0825 9.43375 2.165 10.6875 2.25 C17.12315937 2.97530687 20.62851683 7.62851683 25 12 C25.99 12.66 26.98 13.32 28 14 C26.21190303 15.17213045 24.41940875 16.33755526 22.625 17.5 C21.62726563 18.1496875 20.62953125 18.799375 19.6015625 19.46875 C17 21 17 21 15 21 C13.45129062 18.34506963 12.64580073 15.77884215 11.9375 12.8125 C11.40640944 9.23380855 11.40640944 9.23380855 10 8 C7.97591245 8.09002398 5.95455713 8.24641038 3.9375 8.4375 C2.83277344 8.53933594 1.72804687 8.64117187 0.58984375 8.74609375 C-0.26480469 8.82988281 -1.11945313 8.91367188 -2 9 C-2.125 5.625 -2.125 5.625 -2 2 C-1.34 1.34 -0.68 0.68 0 0 Z " fill="#1C3C56" transform="translate(218,106)"/>
<path d="M0 0 C0.66 0.33 1.32 0.66 2 1 C1.175 1.886875 0.35 2.77375 -0.5 3.6875 C-2.29957172 5.85308631 -2.95873793 6.71804251 -3.375 9.5625 C-2.9902249 12.06353814 -2.56392652 14.53282149 -2 17 C-2.495 16.01 -2.495 16.01 -3 15 C-7.84636186 14.50678618 -10.78372356 14.39655897 -14.71875 17.421875 C-15.9949947 18.51300402 -17.25482648 19.62354274 -18.5 20.75 C-19.88294031 21.93908407 -21.26843669 23.12520072 -22.65625 24.30859375 C-23.71779297 25.22294189 -23.71779297 25.22294189 -24.80078125 26.15576172 C-28.42108151 29.19170179 -32.20367893 32.00199228 -36 34.8125 C-36.70060547 35.33360352 -37.40121094 35.85470703 -38.12304688 36.39160156 C-39.74651321 37.59734821 -41.37290624 38.79915288 -43 40 C-43.99 39.34 -44.98 38.68 -46 38 C-43.50213332 35.95571246 -41.00130847 33.91507428 -38.5 31.875 C-37.80390625 31.30523437 -37.1078125 30.73546875 -36.390625 30.1484375 C-32.94265145 27.33897757 -29.47338438 24.58404583 -25.8984375 21.9375 C-21.54771386 18.70605411 -17.47812617 15.18933341 -13.40625 11.6171875 C-9.21269746 8 -9.21269746 8 -7 8 C-7 7.34 -7 6.68 -7 6 C-5.46875 4.4921875 -5.46875 4.4921875 -3.5 2.875 C-2.8503125 2.33617188 -2.200625 1.79734375 -1.53125 1.2421875 C-1.0259375 0.83226563 -0.520625 0.42234375 0 0 Z " fill="#D8E3E7" transform="translate(279,104)"/>
<path d="M0 0 C0.66 0 1.32 0 2 0 C2.66 2.97 3.32 5.94 4 9 C7.63 9.66 11.26 10.32 15 11 C11.8388984 14.1611016 11.4438418 14.38812741 7.3125 14.6875 C6.10013672 14.78611328 6.10013672 14.78611328 4.86328125 14.88671875 C4.24839844 14.92410156 3.63351562 14.96148437 3 15 C3.020625 16.258125 3.04125 17.51625 3.0625 18.8125 C3.10886083 21.64051087 2.91692961 23.24921116 2 26 C1.34 26 0.68 26 0 26 C-1.19287411 22.12315913 -2 19.08378077 -2 15 C-2.62648438 14.93941406 -3.25296875 14.87882813 -3.8984375 14.81640625 C-4.71570313 14.73261719 -5.53296875 14.64882812 -6.375 14.5625 C-7.59316406 14.44068359 -7.59316406 14.44068359 -8.8359375 14.31640625 C-11 14 -11 14 -13 13 C-13 12.34 -13 11.68 -13 11 C-7.555 10.01 -7.555 10.01 -2 9 C-1.34 6.03 -0.68 3.06 0 0 Z " fill="#314F65" transform="translate(311,145)"/>
<path d="M0 0 C0.99 0.33 1.98 0.66 3 1 C2.74430078 4.56731598 2.26693153 5.7583477 -0.43359375 8.203125 C-1.42488281 8.87859375 -2.41617188 9.5540625 -3.4375 10.25 C-4.42621094 10.93578125 -5.41492188 11.6215625 -6.43359375 12.328125 C-10.21974516 14.79459806 -12.11753346 15.1149124 -16.625 15.0625 C-17.62789062 15.05347656 -18.63078125 15.04445312 -19.6640625 15.03515625 C-20.43492187 15.02355469 -21.20578125 15.01195312 -22 15 C-21.319375 14.2575 -20.63875 13.515 -19.9375 12.75 C-17.71646324 10.24050936 -17.71646324 10.24050936 -18.25 7.6875 C-18.4975 7.130625 -18.745 6.57375 -19 6 C-17.03533587 4.93224776 -15.03144641 3.93446535 -13 3 C-12.34 3.33 -11.68 3.66 -11 4 C-11 3.34 -11 2.68 -11 2 C-9.68 1.67 -8.36 1.34 -7 1 C-7.33 2.32 -7.66 3.64 -8 5 C-3.17557816 3.73053486 -3.17557816 3.73053486 0 0 Z " fill="#227390" transform="translate(229,138)"/>
<path d="M0 0 C2.625 -0.5625 2.625 -0.5625 6 0 C8.91813061 3.07273356 11.9689424 6.66624342 12.02734375 11.0546875 C10.42707036 14.08486296 8.05227893 15.15995893 5.125 16.875 C4.5472583 17.21724609 3.9695166 17.55949219 3.37426758 17.91210938 C-2.00815346 21.07572694 -7.48177767 24.08053969 -13 27 C-14.2077558 23.37673261 -13.54311128 22.35853631 -12 19 C-11.67 19.99 -11.34 20.98 -11 22 C-5.06 18.535 -5.06 18.535 1 15 C0.34 14.34 -0.32 13.68 -1 13 C0.65 13 2.3 13 4 13 C2.87302957 8.03088634 2.87302957 8.03088634 0 4 C0 2.68 0 1.36 0 0 Z " fill="#C5D1D8" transform="translate(244,105)"/>
<path d="M0 0 C4.875 0.875 4.875 0.875 6 2 C6.66 2 7.32 2 8 2 C6.85986287 5.42041138 6.41529732 5.63715286 3.4296875 7.33984375 C2.6975 7.76330078 1.9653125 8.18675781 1.2109375 8.62304688 C0.05464844 9.27370117 0.05464844 9.27370117 -1.125 9.9375 C-1.87265625 10.36740234 -2.6203125 10.79730469 -3.390625 11.24023438 C-5.58893783 12.50215785 -7.79379006 13.75194694 -10 15 C-11.35196203 15.77143565 -12.70356131 16.54350761 -14.0546875 17.31640625 C-15.02664063 17.87199219 -15.99859375 18.42757812 -17 19 C-16.67 17.02 -16.34 15.04 -16 13 C-16.99 12.34 -17.98 11.68 -19 11 C-19 10.34 -19 9.68 -19 9 C-18.26394531 8.98582031 -17.52789062 8.97164062 -16.76953125 8.95703125 C-10.33735663 8.74342977 -10.33735663 8.74342977 -5 5.4375 C-4.34 4.633125 -3.68 3.82875 -3 3 C-2.01 3 -1.02 3 0 3 C0 2.01 0 1.02 0 0 Z " fill="#247591" transform="translate(319,66)"/>
<path d="M0 0 C1.0625 1.875 1.0625 1.875 2 4 C0.42910419 7.14179162 -2.182038 7.27466085 -5.4375 8.375 C-9.69262881 9.83465509 -13.90968285 11.3287331 -18.0625 13.0625 C-26.37715661 16.43219609 -34.99022535 19.49001276 -44 20 C-44.66 19.67 -45.32 19.34 -46 19 C-45.67 18.34 -45.34 17.68 -45 17 C-42.70684794 16.35485989 -40.45016071 15.8143075 -38.125 15.3125 C-31.54862899 13.78803586 -25.26062637 11.79920198 -18.9375 9.4375 C-18.1532666 9.14464111 -17.3690332 8.85178223 -16.56103516 8.55004883 C-13.03986076 7.21408048 -9.56764098 5.8211905 -6.12890625 4.28515625 C-3 3 -3 3 0 3 C0 2.01 0 1.02 0 0 Z " fill="#D0DDE3" transform="translate(187,148)"/>
<path d="M0 0 C0.93423645 3.01031744 1.04449911 3.86650268 0 7 C3.465 8.485 3.465 8.485 7 10 C7.33 9.01 7.66 8.02 8 7 C12.24822374 7.47202486 14.19989709 9.96655518 17 13 C15.47065791 14.32684028 13.92590495 15.63592933 12.375 16.9375 C11.51648438 17.66839844 10.65796875 18.39929688 9.7734375 19.15234375 C6.71574691 21.18936861 4.64157501 21.75722833 1 22 C-1.375 21.0625 -1.375 21.0625 -3 20 C-3 18.35 -3 16.7 -3 15 C-2.4225 15.309375 -1.845 15.61875 -1.25 15.9375 C0.89953007 16.95255587 2.64354368 17.69594112 5 18 C5.99 17.34 6.98 16.68 8 16 C8 15.01 8 14.02 8 13 C3.05 11.02 3.05 11.02 -2 9 C-1.51421457 5.87709365 -1.0013988 3.00419641 0 0 Z " fill="#334E64" transform="translate(112,111)"/>
<path d="M0 0 C4.98162381 0.46702723 9.31868749 2.65740389 13 6 C13.625 9.125 13.625 9.125 13 12 C12.01 13.485 12.01 13.485 11 15 C10.01 14.67 9.02 14.34 8 14 C7.67 12.35 7.34 10.7 7 9 C5.081875 8.814375 5.081875 8.814375 3.125 8.625 C-0.75 8.25 -0.75 8.25 -3 6 C-3 5.01 -3 4.02 -3 3 C-2.34 3 -1.68 3 -1 3 C-0.67 2.01 -0.34 1.02 0 0 Z " fill="#E4E9EB" transform="translate(128,109)"/>
<path d="M0 0 C0 0.66 0 1.32 0 2 C-0.99 2.33 -1.98 2.66 -3 3 C-3.33 4.98 -3.66 6.96 -4 9 C-2.68 9.66 -1.36 10.32 0 11 C-1.65 11.99 -3.3 12.98 -5 14 C-5.12375 13.360625 -5.2475 12.72125 -5.375 12.0625 C-5.58125 11.381875 -5.7875 10.70125 -6 10 C-6.66 9.67 -7.32 9.34 -8 9 C-8.309375 9.639375 -8.61875 10.27875 -8.9375 10.9375 C-10 13 -10 13 -11 14 C-12.66617115 14.04063832 -14.33388095 14.042721 -16 14 C-16.33 13.01 -16.66 12.02 -17 11 C-17.66 11 -18.32 11 -19 11 C-19 11.66 -19 12.32 -19 13 C-20.65 13 -22.3 13 -24 13 C-21.76503893 10.54879544 -19.55118937 9.05885408 -16.62109375 7.51953125 C-15.78255859 7.07802734 -14.94402344 6.63652344 -14.08007812 6.18164062 C-13.20802734 5.72982422 -12.33597656 5.27800781 -11.4375 4.8125 C-10.56158203 4.34908203 -9.68566406 3.88566406 -8.78320312 3.40820312 C-2.26294413 0 -2.26294413 0 0 0 Z " fill="#2C7894" transform="translate(237,129)"/>
<path d="M0 0 C0.66 0 1.32 0 2 0 C2.66 2.31 3.32 4.62 4 7 C6.97 7.33 9.94 7.66 13 8 C13 8.66 13 9.32 13 10 C9.7 10.66 6.4 11.32 3 12 C3 14.31 3 16.62 3 19 C2.34 19 1.68 19 1 19 C0.67 16.69 0.34 14.38 0 12 C-2.64 11.67 -5.28 11.34 -8 11 C-7.67 10.34 -7.34 9.68 -7 9 C-3.9375 8.375 -3.9375 8.375 -1 8 C-0.67 5.36 -0.34 2.72 0 0 Z " fill="#3D576C" transform="translate(77,135)"/>
<path d="M0 0 C-0.33 0.99 -0.66 1.98 -1 3 C-3.8359375 4.16796875 -3.8359375 4.16796875 -7.375 5.1875 C-9.11910156 5.70376953 -9.11910156 5.70376953 -10.8984375 6.23046875 C-14 7 -14 7 -17 7 C-17.33 7.66 -17.66 8.32 -18 9 C-18 8.01 -18 7.02 -18 6 C-18.64582031 6.144375 -19.29164063 6.28875 -19.95703125 6.4375 C-32.71650026 8.95099321 -46.36768753 9.31339344 -59 6 C-55.96039092 5.06950742 -53.70007829 5.00892691 -50.5625 5.4375 C-34.55105173 7.18802277 -19.58812611 4.90403355 -4.44140625 -0.328125 C-2 -1 -2 -1 0 0 Z " fill="#A4C4CE" transform="translate(152,189)"/>
<path d="M0 0 C0.66 0 1.32 0 2 0 C2.33 2.31 2.66 4.62 3 7 C3.66 6.67 4.32 6.34 5 6 C5 7.32 5 8.64 5 10 C1.78571429 13 1.78571429 13 -1 13 C-1.33 12.67 -1.66 12.34 -2 12 C-4.41250727 17.3599996 -4.41250727 17.3599996 -6 23 C-7.32 23 -8.64 23 -10 23 C-10.33 24.98 -10.66 26.96 -11 29 C-11.33 29 -11.66 29 -12 29 C-12.1875 25.6875 -12.1875 25.6875 -12 22 C-11.02149805 20.97895449 -10.02019573 19.9793879 -9 19 C-8.63239269 16.67182036 -8.29758419 14.3381615 -8 12 C-7.34 11.34 -6.68 10.68 -6 10 C-5.83322718 6.41656024 -5.83322718 6.41656024 -6 3 C-5.34 3.33 -4.68 3.66 -4 4 C-3.375 6.5625 -3.375 6.5625 -3 9 C-2.34 9 -1.68 9 -1 9 C0.4783226 6.04335481 0.06032783 3.25770263 0 0 Z " fill="#294861" transform="translate(140,114)"/>
<path d="M0 0 C0.33 0 0.66 0 1 0 C1.33 1.65 1.66 3.3 2 5 C2.66 3.35 3.32 1.7 4 0 C5.52738962 3.93447832 4.39140985 6.6540972 3.125 10.5625 C1.24580811 16.75087329 0.26327378 22.54979237 0 29 C-0.99 29.33 -1.98 29.66 -3 30 C-3.30097303 19.7836378 -2.63816847 9.91095723 0 0 Z " fill="#CECECF" transform="translate(93,106)"/>
<path d="M0 0 C2.15454102 0.92675781 2.15454102 0.92675781 4 2 C2.80473602 2.73185009 1.60940964 3.46359825 0.4140625 4.1953125 C-0.72820801 4.89466919 -0.72820801 4.89466919 -1.89355469 5.6081543 C-3.55193388 6.62188019 -5.21144666 7.63375388 -6.87207031 8.64379883 C-10.34021828 10.75385065 -13.79696406 12.86933575 -17.2109375 15.06640625 C-24.68613371 19.83903152 -24.68613371 19.83903152 -30 19 C-28.47312814 15.94625627 -25.53638575 15.2022457 -22.5625 13.8125 C-17.06692364 11.1654161 -12.09719157 8.22287347 -7.18359375 4.578125 C-6.46300781 4.05734375 -5.74242187 3.5365625 -5 3 C-4.16597656 2.39671875 -3.33195312 1.7934375 -2.47265625 1.171875 C-1.65667969 0.78515625 -0.84070313 0.3984375 0 0 Z " fill="#D3E1E6" transform="translate(215,154)"/>
<path d="M0 0 C0.66 0 1.32 0 2 0 C2 0.99 2 1.98 2 3 C-1 5 -1 5 -5 5 C-5 5.66 -5 6.32 -5 7 C-5.66 7 -6.32 7 -7 7 C-6.7525 7.53625 -6.505 8.0725 -6.25 8.625 C-5.86446856 12.28754864 -7.86818034 14.15757379 -10 17 C-11.32 15.35 -12.64 13.7 -14 12 C-13.01 10.68 -12.02 9.36 -11 8 C-11.66 8 -12.32 8 -13 8 C-13 5 -13 5 -11.5 3.375 C-8.01573855 1.4586562 -4.95090942 1.38861404 -1 1 C-0.67 0.67 -0.34 0.34 0 0 Z " fill="#21728E" transform="translate(347,49)"/>
<path d="M0 0 C0 0.66 0 1.32 0 2 C1.32 2.66 2.64 3.32 4 4 C1 5 1 5 -1.7890625 4.47265625 C-5.4458257 3.93437359 -7.83200435 4.45333454 -11.375 5.4375 C-12.43460938 5.72496094 -13.49421875 6.01242188 -14.5859375 6.30859375 C-15.38257813 6.53675781 -16.17921875 6.76492187 -17 7 C-16.01 8.485 -16.01 8.485 -15 10 C-15.66 10 -16.32 10 -17 10 C-17.33 11.32 -17.66 12.64 -18 14 C-20.04119788 12.38405168 -22.04072937 10.7143618 -24 9 C-24 8.34 -24 7.68 -24 7 C-22.89140625 6.66226563 -21.7828125 6.32453125 -20.640625 5.9765625 C-19.17702702 5.52622466 -17.71348845 5.07569367 -16.25 4.625 C-15.15558594 4.29242188 -15.15558594 4.29242188 -14.0390625 3.953125 C-9.78956975 2.64031897 -9.78956975 2.64031897 -5.734375 0.8359375 C-4 0 -4 0 0 0 Z " fill="#335068" transform="translate(159,189)"/>
<path d="M0 0 C2.625 -0.5625 2.625 -0.5625 6 0 C8.39920247 2.7720515 10.21328523 5.80672254 12 9 C7.25 12 7.25 12 5 12 C0.57142857 4.71428571 0.57142857 4.71428571 0 0 Z " fill="#2A465F" transform="translate(244,105)"/>
<path d="M0 0 C5.56818182 0.56818182 5.56818182 0.56818182 7 2 C8.34747084 2.23075082 9.70377565 2.41153063 11.0625 2.5625 C12.361875 2.706875 13.66125 2.85125 15 3 C12.44931155 5.35448165 11.28982642 5.98327924 7.75 6.1875 C6.38875 6.0946875 6.38875 6.0946875 5 6 C5 6.66 5 7.32 5 8 C2.69 8.33 0.38 8.66 -2 9 C-2.125 5.625 -2.125 5.625 -2 2 C-1.34 1.34 -0.68 0.68 0 0 Z " fill="#29475F" transform="translate(218,106)"/>
<path d="M0 0 C0.66 0 1.32 0 2 0 C0.66144858 3.042125 -0.73732131 4.91361125 -3.265625 7.05859375 C-3.90886719 7.60966797 -4.55210937 8.16074219 -5.21484375 8.72851562 C-5.88644531 9.29248047 -6.55804688 9.85644531 -7.25 10.4375 C-7.90613281 10.99759766 -8.56226563 11.55769531 -9.23828125 12.13476562 C-10.53592614 13.2402146 -11.83859218 14.3397996 -13.14648438 15.43310547 C-14.34185217 16.44362582 -15.52177849 17.47284282 -16.68164062 18.52392578 C-19.81119073 21.31788576 -20.61743561 22 -25 22 C-23.47686628 17.73522559 -20.69186584 16.41940563 -17 14 C-14.15503174 11.87045758 -11.37556509 9.65595346 -8.59179688 7.44726562 C-6.06406059 5.47071217 -4.07029546 4.02343182 -1 3 C-0.67 2.01 -0.34 1.02 0 0 Z " fill="#3E8399" transform="translate(296,87)"/>
<path d="M0 0 C0.56203125 0.16371094 1.1240625 0.32742187 1.703125 0.49609375 C4.13059056 1.02864997 6.26889681 1.09898681 8.75 1.0625 C9.94882813 1.04896484 9.94882813 1.04896484 11.171875 1.03515625 C12.07679688 1.01775391 12.07679688 1.01775391 13 1 C13 1.66 13 2.32 13 3 C10.36 3.33 7.72 3.66 5 4 C12.59 4 20.18 4 28 4 C28 4.33 28 4.66 28 5 C22.02181305 6.03500467 16.18496704 6.18338876 10.125 6.1875 C8.71154297 6.20586914 8.71154297 6.20586914 7.26953125 6.22460938 C1.20348579 6.23719453 -4.12652662 5.52565582 -10 4 C-6.08263419 2.8299903 -3.02040985 3.30415983 1 4 C0.67 2.68 0.34 1.36 0 0 Z " fill="#476075" transform="translate(182,215)"/>
<path d="M0 0 C-0.99 1.98 -1.98 3.96 -3 6 C-0.525 6.495 -0.525 6.495 2 7 C2 7.33 2 7.66 2 8 C-4.75 8.125 -4.75 8.125 -7 7 C-7 6.34 -7 5.68 -7 5 C-8.0725 5.350625 -9.145 5.70125 -10.25 6.0625 C-14.92307692 7.23076923 -14.92307692 7.23076923 -18 6 C-14.91993154 4.01285906 -11.74436966 2.32158162 -8.4375 0.75 C-7.69371094 0.39421875 -6.94992188 0.0384375 -6.18359375 -0.328125 C-3.6871003 -1.09627683 -2.42963887 -0.85946409 0 0 Z " fill="#D1DEE3" transform="translate(166,184)"/>
<path d="M0 0 C1.4606285 2.64738916 2 3.89448334 2 7 C4.97 7.495 4.97 7.495 8 8 C6 10 6 10 3 11 C2.67 12.98 2.34 14.96 2 17 C1.34 17 0.68 17 0 17 C-0.33 14.69 -0.66 12.38 -1 10 C-2.65 10 -4.3 10 -6 10 C-6 9.34 -6 8.68 -6 8 C-4.68 7.67 -3.36 7.34 -2 7 C-1.34 4.69 -0.68 2.38 0 0 Z " fill="#375066" transform="translate(274,40)"/>
<path d="M0 0 C1.0625 1.875 1.0625 1.875 2 4 C0.40374711 7.19250577 -2.39641592 7.37202134 -5.6875 8.5 C-6.90824219 8.9228125 -8.12898437 9.345625 -9.38671875 9.78125 C-12.58882076 10.86131035 -15.79259641 11.93579236 -19 13 C-19 12.34 -19 11.68 -19 11 C-19.66 10.67 -20.32 10.34 -21 10 C-18.06574629 8.82504857 -15.12710487 7.66149148 -12.1875 6.5 C-11.35412109 6.16613281 -10.52074219 5.83226562 -9.66210938 5.48828125 C-8.85966797 5.17246094 -8.05722656 4.85664063 -7.23046875 4.53125 C-6.49207764 4.23798828 -5.75368652 3.94472656 -4.99291992 3.64257812 C-3 3 -3 3 0 3 C0 2.01 0 1.02 0 0 Z " fill="#D4DEE3" transform="translate(187,148)"/>
<path d="M0 0 C0.93423645 3.01031744 1.04449911 3.86650268 0 7 C3.465 8.485 3.465 8.485 7 10 C7.33 9.01 7.66 8.02 8 7 C12.24822374 7.47202486 14.19989709 9.96655518 17 13 C14 14 14 14 11.8125 13.0625 C11.214375 12.711875 10.61625 12.36125 10 12 C9.67 13.32 9.34 14.64 9 16 C8.67 15.01 8.34 14.02 8 13 C5.67730041 11.75501391 5.67730041 11.75501391 2.9375 10.8125 C1.55884766 10.29623047 1.55884766 10.29623047 0.15234375 9.76953125 C-0.55792969 9.51558594 -1.26820312 9.26164062 -2 9 C-1.51421457 5.87709365 -1.0013988 3.00419641 0 0 Z " fill="#738797" transform="translate(112,111)"/>
<path d="M0 0 C3.63 0 7.26 0 11 0 C11.33 1.32 11.66 2.64 12 4 C7.545 6.97 7.545 6.97 3 10 C3 9.01 3 8.02 3 7 C2.6814823 4.89179203 2.6814823 4.89179203 2 3 C1.34 2.67 0.68 2.34 0 2 C0 1.34 0 0.68 0 0 Z " fill="#377F99" transform="translate(300,75)"/>
<path d="M0 0 C0.66 0.33 1.32 0.66 2 1 C2 1.99 2 2.98 2 4 C1.01 4.495 1.01 4.495 0 5 C0 5.66 0 6.32 0 7 C-2.31 7.33 -4.62 7.66 -7 8 C-7.66 9.65 -8.32 11.3 -9 13 C-9.33 12.34 -9.66 11.68 -10 11 C-10.37125 11.45375 -10.7425 11.9075 -11.125 12.375 C-13.54264685 14.47029394 -15.95430602 15.12013285 -19 16 C-15.33776542 12.17255183 -11.48271604 8.92691496 -7.25 5.75 C-3.48676519 3.034049 -3.48676519 3.034049 0 0 Z " fill="#29465E" transform="translate(255,128)"/>
<path d="M0 0 C1.32 0.66 2.64 1.32 4 2 C1.94005539 3.60754096 -0.12280476 5.2110805 -2.1875 6.8125 C-3.0547168 7.49022461 -3.0547168 7.49022461 -3.93945312 8.18164062 C-7.18252081 10.69181166 -10.42313088 12.97243389 -14 15 C-14.66 14.34 -15.32 13.68 -16 13 C-10.72 8.71 -5.44 4.42 0 0 Z " fill="#CAD9DF" transform="translate(249,129)"/>
<path d="M0 0 C0.66 0.33 1.32 0.66 2 1 C1.175 1.886875 0.35 2.77375 -0.5 3.6875 C-2.29957172 5.85308631 -2.95873793 6.71804251 -3.375 9.5625 C-2.9902249 12.06353814 -2.56392652 14.53282149 -2 17 C-2.33 16.34 -2.66 15.68 -3 15 C-3.94875 15.04125 -4.8975 15.0825 -5.875 15.125 C-9 15 -9 15 -11 13 C-10.34 13 -9.68 13 -9 13 C-9 12.34 -9 11.68 -9 11 C-8.34 11 -7.68 11 -7 11 C-7 10.34 -7 9.68 -7 9 C-7.66 8.67 -8.32 8.34 -9 8 C-8.34 8 -7.68 8 -7 8 C-7 7.34 -7 6.68 -7 6 C-5.46875 4.4921875 -5.46875 4.4921875 -3.5 2.875 C-2.8503125 2.33617188 -2.200625 1.79734375 -1.53125 1.2421875 C-0.77328125 0.62730469 -0.77328125 0.62730469 0 0 Z " fill="#CDDFE5" transform="translate(279,104)"/>
<path d="M0 0 C3 1 3 1 4.75 3.75 C6.06883276 7.17896517 6.10867421 8.57318882 5 12 C3.68 12.33 2.36 12.66 1 13 C0.01 9.37 -0.98 5.74 -2 2 C-1.34 1.34 -0.68 0.68 0 0 Z " fill="#28455D" transform="translate(265,93)"/>
<path d="M0 0 C2.64 1.32 5.28 2.64 8 4 C7.625 6.4375 7.625 6.4375 7 9 C3.97562661 10.5121867 1.33758466 10.17263369 -2 10 C-4.4375 9 -4.4375 9 -6 8 C-3.45297384 6.72648692 -2.5717055 7.19808075 0.125 7.9375 C1.21167969 8.22947266 1.21167969 8.22947266 2.3203125 8.52734375 C2.87460938 8.68332031 3.42890625 8.83929688 4 9 C4 8.34 4 7.68 4 7 C2.35 6.67 0.7 6.34 -1 6 C-0.67 4.02 -0.34 2.04 0 0 Z " fill="#EDF2F3" transform="translate(188,207)"/>
<path d="M0 0 C0.66 0.33 1.32 0.66 2 1 C-0.35277269 3.72426311 -2.62496331 4.8141763 -6 6 C-5.67 7.32 -5.34 8.64 -5 10 C-5.66 10 -6.32 10 -7 10 C-7 10.66 -7 11.32 -7 12 C-5.68 12.33 -4.36 12.66 -3 13 C-3 13.33 -3 13.66 -3 14 C-6.3 14 -9.6 14 -13 14 C-12.319375 13.2575 -11.63875 12.515 -10.9375 11.75 C-8.71646324 9.24050936 -8.71646324 9.24050936 -9.25 6.6875 C-9.4975 6.130625 -9.745 5.57375 -10 5 C-8.03533587 3.93224776 -6.03144641 2.93446535 -4 2 C-3.34 2.33 -2.68 2.66 -2 3 C-2 2.34 -2 1.68 -2 1 C-1.34 0.67 -0.68 0.34 0 0 Z " fill="#186F8D" transform="translate(220,139)"/>
<path d="M0 0 C0.66 0.33 1.32 0.66 2 1 C1.01 1.33 0.02 1.66 -1 2 C-1 2.66 -1 3.32 -1 4 C-4.32703078 7.91415386 -7.02639643 9.72768281 -12 11 C-11.34 9.68 -10.68 8.36 -10 7 C-12.31 7.66 -14.62 8.32 -17 9 C-15.67613295 6.3522659 -14.36742791 6.0592562 -11.6875 4.875 C-10.90761719 4.52179688 -10.12773437 4.16859375 -9.32421875 3.8046875 C-7 3 -7 3 -3 3 C-3 2.34 -3 1.68 -3 1 C-2.01 0.67 -1.02 0.34 0 0 Z " fill="#3E849D" transform="translate(211,142)"/>
<path d="M0 0 C1.87890625 0.2890625 1.87890625 0.2890625 3.94140625 1.5390625 C4.87890625 3.2890625 4.87890625 3.2890625 4.56640625 5.4765625 C4.22609375 6.37375 4.22609375 6.37375 3.87890625 7.2890625 C3.21890625 7.2890625 2.55890625 7.2890625 1.87890625 7.2890625 C0.88890625 8.7740625 0.88890625 8.7740625 -0.12109375 10.2890625 C-0.22421875 9.6703125 -0.32734375 9.0515625 -0.43359375 8.4140625 C-0.99634748 5.92379766 -0.99634748 5.92379766 -4.12109375 4.2890625 C-5.77658906 3.90406359 -7.44333705 3.56113115 -9.12109375 3.2890625 C-6.73297497 -0.29311567 -3.97124411 -0.16089755 0 0 Z " fill="#183953" transform="translate(232.12109375,109.7109375)"/>
<path d="M0 0 C0.66 0.33 1.32 0.66 2 1 C1.34 3.64 0.68 6.28 0 9 C-1.65 9 -3.3 9 -5 9 C-5.33 8.01 -5.66 7.02 -6 6 C-6.66 6 -7.32 6 -8 6 C-8 6.66 -8 7.32 -8 8 C-9.65 8 -11.3 8 -13 8 C-10.61664713 5.32561064 -8.12963852 3.84841988 -4.9375 2.25 C-4.05964844 1.80140625 -3.18179688 1.3528125 -2.27734375 0.890625 C-1.52582031 0.59671875 -0.77429688 0.3028125 0 0 Z " fill="#3F849D" transform="translate(226,134)"/>
<path d="M0 0 C0.66 0 1.32 0 2 0 C4.13019011 7.51831803 4.13019011 7.51831803 3 12 C2.88162278 13.39322168 2.80115586 14.79005687 2.75390625 16.1875 C2.72103516 16.96867187 2.68816406 17.74984375 2.65429688 18.5546875 C2.59310428 20.18475407 2.53581163 21.81497171 2.48242188 23.4453125 C2.44826172 24.22648437 2.41410156 25.00765625 2.37890625 25.8125 C2.3538501 26.52019531 2.32879395 27.22789062 2.30297852 27.95703125 C2 30 2 30 0 34 C0 22.78 0 11.56 0 0 Z " fill="#D2D3D4" transform="translate(289,113)"/>
<path d="M0 0 C1.32 0.33 2.64 0.66 4 1 C-0.08733141 4.44868587 -4.43805907 7.23793154 -9 10 C-9 9.34 -9 8.68 -9 8 C-9.66 8 -10.32 8 -11 8 C-11 5.69 -11 3.38 -11 1 C-10.67 1 -10.34 1 -10 1 C-10 2.65 -10 4.3 -10 6 C-6.87802522 4.6910428 -6.87802522 4.6910428 -5 2 C-3.35 2.33 -1.7 2.66 0 3 C0 2.01 0 1.02 0 0 Z " fill="#DAE6E8" transform="translate(276,100)"/>
<path d="M0 0 C0.99 0.495 0.99 0.495 2 1 C2 1.99 2 2.98 2 4 C2.7425 3.525625 3.485 3.05125 4.25 2.5625 C6.61050015 1.22130673 8.36648477 0.487688 11 0 C10.45276317 3.37462715 9.9451 5.08235 8 8 C3.25 6.125 3.25 6.125 1 5 C0.375 2.4375 0.375 2.4375 0 0 Z " fill="#CDD6DB" transform="translate(150,136)"/>
<path d="M0 0 C0.66 0 1.32 0 2 0 C2.33 1.32 2.66 2.64 3 4 C2.34 4 1.68 4 1 4 C0.9175 4.61875 0.835 5.2375 0.75 5.875 C0 8 0 8 -1.875 9.3125 C-4 10 -4 10 -7 9 C-6.67 7.68 -6.34 6.36 -6 5 C-5.38125 4.9175 -4.7625 4.835 -4.125 4.75 C-1.81562433 4.18741541 -1.81562433 4.18741541 -0.75 1.9375 C-0.5025 1.298125 -0.255 0.65875 0 0 Z " fill="#1F7290" transform="translate(252,120)"/>
<path d="M0 0 C0.33 0 0.66 0 1 0 C1.33 1.65 1.66 3.3 2 5 C2.66 3.35 3.32 1.7 4 0 C5.25127906 3.54667178 4.72285053 5.72253438 3.5625 9.25 C3.27503906 10.14203125 2.98757812 11.0340625 2.69140625 11.953125 C2.46324219 12.62859375 2.23507813 13.3040625 2 14 C1.34 12.68 0.68 11.36 0 10 C-0.33 11.65 -0.66 13.3 -1 15 C-1.33 15 -1.66 15 -2 15 C-2.19392201 9.47322267 -1.7479503 5.24385089 0 0 Z " fill="#D5D5D6" transform="translate(93,106)"/>
<path d="M0 0 C0.66 0.33 1.32 0.66 2 1 C-4.27 7.27 -10.54 13.54 -17 20 C-17 15.59206469 -14.19898652 13.59111129 -11.3125 10.5625 C-10.51682617 9.70301758 -10.51682617 9.70301758 -9.70507812 8.82617188 C-6.66424545 5.58386072 -3.55839592 2.68695202 0 0 Z " fill="#EDEEEF" transform="translate(131,59)"/>
<path d="M0 0 C0.33 1.32 0.66 2.64 1 4 C0.34 4 -0.32 4 -1 4 C-0.67 5.65 -0.34 7.3 0 9 C-1.45880109 8.85892253 -2.91703551 8.71197585 -4.375 8.5625 C-5.59316406 8.44068359 -5.59316406 8.44068359 -6.8359375 8.31640625 C-9 8 -9 8 -11 7 C-11 6.34 -11 5.68 -11 5 C-5.555 4.01 -5.555 4.01 0 3 C0 2.01 0 1.02 0 0 Z " fill="#4D6476" transform="translate(309,151)"/>
<path d="M0 0 C0 0.66 0 1.32 0 2 C0.66 2.66 1.32 3.32 2 4 C1.67 4.99 1.34 5.98 1 7 C-0.32 7 -1.64 7 -3 7 C-3 6.34 -3 5.68 -3 5 C-4.32 5 -5.64 5 -7 5 C-7.33 5.66 -7.66 6.32 -8 7 C-8 6.34 -8 5.68 -8 5 C-9.32 4.67 -10.64 4.34 -12 4 C-11.16855469 3.69255859 -11.16855469 3.69255859 -10.3203125 3.37890625 C-9.59585938 3.10949219 -8.87140625 2.84007812 -8.125 2.5625 C-7.40570313 2.29566406 -6.68640625 2.02882812 -5.9453125 1.75390625 C-1.41968912 0 -1.41968912 0 0 0 Z " fill="#347F9C" transform="translate(193,151)"/>
<path d="M0 0 C0.66 0.33 1.32 0.66 2 1 C1.67 1.66 1.34 2.32 1 3 C0.34 3 -0.32 3 -1 3 C-1 3.66 -1 4.32 -1 5 C0.32 5.33 1.64 5.66 3 6 C0.36 7.98 -2.28 9.96 -5 12 C-4.67 9.69 -4.34 7.38 -4 5 C-4.66 4.67 -5.32 4.34 -6 4 C-4.02 2.68 -2.04 1.36 0 0 Z " fill="#38809C" transform="translate(258,115)"/>
<path d="M0 0 C0.66 0.99 1.32 1.98 2 3 C1.01 3.66 0.02 4.32 -1 5 C-1.2475 5.721875 -1.495 6.44375 -1.75 7.1875 C-3.58627198 11.31911194 -6.72018715 13.95696508 -10 17 C-10.66 16.67 -11.32 16.34 -12 16 C-11.46890625 15.34773437 -10.9378125 14.69546875 -10.390625 14.0234375 C-6.7080143 9.46721477 -3.1294384 4.95494413 0 0 Z " fill="#C3CFD6" transform="translate(266,179)"/>
<path d="M0 0 C1.875 2 1.875 2 3 4 C-1.05212259 4.84811868 -3.98663354 4.97622427 -8 4 C-8.99 4 -9.98 4 -11 4 C-11 3.34 -11 2.68 -11 2 C-7.19685841 0.21028631 -4.20362607 -0.54829905 0 0 Z " fill="#345068" transform="translate(208,108)"/>
<path d="M0 0 C1.32 0 2.64 0 4 0 C4 1.98 4 3.96 4 6 C4.66 6 5.32 6 6 6 C6.12375 6.78375 6.2475 7.5675 6.375 8.375 C6.79117993 11.14057822 6.79117993 11.14057822 9 13 C7.35 12.67 5.7 12.34 4 12 C3.67 9.03 3.34 6.06 3 3 C2.34 3 1.68 3 1 3 C1 4.65 1 6.3 1 8 C0.67 8 0.34 8 0 8 C0 5.36 0 2.72 0 0 Z " fill="#A7B6BF" transform="translate(310,142)"/>
<path d="M0 0 C5.94 0 11.88 0 18 0 C16.11656068 3.76687864 15.30867531 4.79421646 12 7 C11.67 5.68 11.34 4.36 11 3 C11.66 2.67 12.32 2.34 13 2 C8.71 1.67 4.42 1.34 0 1 C0 0.67 0 0.34 0 0 Z " fill="#D5E4E7" transform="translate(300,66)"/>
<path d="M0 0 C0 0.66 0 1.32 0 2 C1.32 2.66 2.64 3.32 4 4 C1 5 1 5 -1.875 4.5 C-4.97929856 4.00331223 -6.99274653 4.20396232 -10 5 C-7.05274682 0.64929292 -5.38362365 0 0 0 Z " fill="#274660" transform="translate(159,189)"/>
<path d="M0 0 C3.92247359 3.69833224 7.1189547 7.42422217 10 12 C9.67 12.99 9.34 13.98 9 15 C7.51851668 13.21024844 6.03988094 11.41813943 4.5625 9.625 C3.73878906 8.62726563 2.91507812 7.62953125 2.06640625 6.6015625 C0 4 0 4 -1 2 C-0.67 1.34 -0.34 0.68 0 0 Z " fill="#CBCBCB" transform="translate(266,66)"/>
<path d="M0 0 C7.26 0 14.52 0 22 0 C22 1.32 22 2.64 22 4 C20.35 4.33 18.7 4.66 17 5 C17.66 3.68 18.32 2.36 19 1 C12.73 1 6.46 1 0 1 C0 0.67 0 0.34 0 0 Z " fill="#AFBCC6" transform="translate(185,51)"/>
<path d="M0 0 C2 1 2 1 3 2 C3.99 2 4.98 2 6 2 C3.16569547 5.2542015 1.31392226 6.5206753 -3 7 C-3.33 5.35 -3.66 3.7 -4 2 C-2.125 0.9375 -2.125 0.9375 0 0 Z " fill="#EAF0F2" transform="translate(258,109)"/>
<path d="M0 0 C1.54296875 1.2109375 1.54296875 1.2109375 3 3 C2.92578125 5.2265625 2.92578125 5.2265625 2.3125 7.625 C2.12300781 8.42164062 1.93351562 9.21828125 1.73828125 10.0390625 C1 12 1 12 -1 13 C-0.34 10.69 0.32 8.38 1 6 C-0.32 6.33 -1.64 6.66 -3 7 C-2.625 4.0625 -2.625 4.0625 -2 1 C-1.34 0.67 -0.68 0.34 0 0 Z " fill="#C8C9CB" transform="translate(100,90)"/>
<path d="M0 0 C0.99 0.33 1.98 0.66 3 1 C3.33 2.65 3.66 4.3 4 6 C-2.625 6.25 -2.625 6.25 -6 4 C-5.195625 3.525625 -4.39125 3.05125 -3.5625 2.5625 C-1.15246512 1.23099846 -1.15246512 1.23099846 0 0 Z " fill="#11324D" transform="translate(179,213)"/>
<path d="M0 0 C0 0.99 0 1.98 0 3 C-0.99 3 -1.98 3 -3 3 C-3.33 4.65 -3.66 6.3 -4 8 C-3.34 8.33 -2.68 8.66 -2 9 C-3.32 8.67 -4.64 8.34 -6 8 C-5.67 6.35 -5.34 4.7 -5 3 C-6.32 2.34 -7.64 1.68 -9 1 C-5.8035914 -0.06546953 -3.34252724 -0.07427838 0 0 Z " fill="#113350" transform="translate(148,195)"/>
<path d="M0 0 C0.66 0.33 1.32 0.66 2 1 C2 1.99 2 2.98 2 4 C-2.22949995 6.41685712 -5.12335991 7.34833144 -10 7 C-8.67408323 4.34816647 -7.13437549 3.74863527 -4.5625 2.3125 C-3.75941406 1.85488281 -2.95632812 1.39726562 -2.12890625 0.92578125 C-1.42636719 0.62027344 -0.72382813 0.31476563 0 0 Z " fill="#BFD2DB" transform="translate(195,166)"/>
<path d="M0 0 C0.33 1.98 0.66 3.96 1 6 C-2.75 9 -2.75 9 -5 9 C-5.25 6.1875 -5.25 6.1875 -5 3 C-1.9 0 -1.9 0 0 0 Z " fill="#163753" transform="translate(238,118)"/>
<path d="M0 0 C0.33 0.66 0.66 1.32 1 2 C3.32156597 2.40729228 5.6568787 2.74438677 8 3 C5.14521674 4.90318884 3.58058692 5.4619099 0.3125 6.125 C-0.49574219 6.29257813 -1.30398437 6.46015625 -2.13671875 6.6328125 C-2.75160156 6.75398437 -3.36648437 6.87515625 -4 7 C-2.79618552 4.50638429 -1.54571278 2.31856917 0 0 Z " fill="#37546A" transform="translate(146,159)"/>
<path d="M0 0 C0.33 0 0.66 0 1 0 C1 2.31 1 4.62 1 7 C-1.64 7.33 -4.28 7.66 -7 8 C-6.67 6.35 -6.34 4.7 -6 3 C-5.195625 2.87625 -4.39125 2.7525 -3.5625 2.625 C-2.716875 2.41875 -1.87125 2.2125 -1 2 C-0.67 1.34 -0.34 0.68 0 0 Z " fill="#264762" transform="translate(136,136)"/>
<path d="M0 0 C0.66 0.33 1.32 0.66 2 1 C0.75023244 4.65316671 0.32901247 5.78065836 -3 8 C-3.99 9.485 -3.99 9.485 -5 11 C-7.125 4.25 -7.125 4.25 -6 2 C-5.34 2.66 -4.68 3.32 -4 4 C-3.01 3.67 -2.02 3.34 -1 3 C-0.67 2.01 -0.34 1.02 0 0 Z " fill="#415C72" transform="translate(237,113)"/>
<path d="M0 0 C1.69057861 5.28305817 1.29188056 10.67099269 0 16 C-2.47682859 12.28475712 -2.43538538 9.30361706 -2 5 C-1 2 -1 2 0 0 Z " fill="#5794A9" transform="translate(82,167)"/>
<path d="M0 0 C0.99 0.33 1.98 0.66 3 1 C1.125 5.875 1.125 5.875 0 7 C-1.66617115 7.04063832 -3.33388095 7.042721 -5 7 C-5 6.34 -5 5.68 -5 5 C-4.34 5 -3.68 5 -3 5 C-2.87625 4.360625 -2.7525 3.72125 -2.625 3.0625 C-2.41875 2.381875 -2.2125 1.70125 -2 1 C-1.34 0.67 -0.68 0.34 0 0 Z " fill="#21738E" transform="translate(262,113)"/>
<path d="M0 0 C2.7356105 1.20366862 5.20904625 2.7175978 7.6875 4.375 C8.28949219 4.77460938 8.89148438 5.17421875 9.51171875 5.5859375 C11.31772078 7.30187644 11.61315581 8.57577643 12 11 C8.81293058 9.56438314 6.37830895 7.79733671 3.75 5.5 C3.04359375 4.8915625 2.3371875 4.283125 1.609375 3.65625 C0 2 0 2 0 0 Z " fill="#C9C9CA" transform="translate(122,208)"/>
<path d="M0 0 C-1.20381448 2.49361571 -2.45428722 4.68143083 -4 7 C-4.45139459 9.0492094 -4.45139459 9.0492094 -4.625 11.1875 C-4.74875 12.445625 -4.8725 13.70375 -5 15 C-5.33 15 -5.66 15 -6 15 C-6.12375 13.865625 -6.2475 12.73125 -6.375 11.5625 C-6.58125 10.386875 -6.7875 9.21125 -7 8 C-7.66 7.67 -8.32 7.34 -9 7 C-7.88121617 5.82737096 -6.75476949 4.66204862 -5.625 3.5 C-4.68527344 2.52546875 -4.68527344 2.52546875 -3.7265625 1.53125 C-2 0 -2 0 0 0 Z " fill="#6599AD" transform="translate(98,150)"/>
<path d="M0 0 C0.99 0.33 1.98 0.66 3 1 C1.02 1.99 1.02 1.99 -1 3 C-0.67 3.66 -0.34 4.32 0 5 C-0.33 5.66 -0.66 6.32 -1 7 C-0.34 7.33 0.32 7.66 1 8 C0.01 8 -0.98 8 -2 8 C-2 7.34 -2 6.68 -2 6 C-4.31 6.33 -6.62 6.66 -9 7 C-6.36797295 4.0755255 -3.39162974 1.97845068 0 0 Z " fill="#365369" transform="translate(217,156)"/>
<path d="M0 0 C1.65 0.33 3.3 0.66 5 1 C3.72553565 3.5489287 2.53636507 3.80641644 0 5 C-0.99 5.66 -1.98 6.32 -3 7 C-3.99 7 -4.98 7 -6 7 C-6 6.01 -6 5.02 -6 4 C-4.7934375 3.566875 -4.7934375 3.566875 -3.5625 3.125 C-0.8673532 2.26737432 -0.8673532 2.26737432 0 0 Z " fill="#EDF4F3" transform="translate(94,148)"/>
<path d="M0 0 C0 0.66 0 1.32 0 2 C-1.96875 3.5078125 -1.96875 3.5078125 -4.5 5.125 C-5.3353125 5.66382813 -6.170625 6.20265625 -7.03125 6.7578125 C-7.6809375 7.16773438 -8.330625 7.57765625 -9 8 C-9.66 7.34 -10.32 6.68 -11 6 C-9.73608512 4.99126984 -8.46359117 3.99328178 -7.1875 3 C-6.47980469 2.443125 -5.77210938 1.88625 -5.04296875 1.3125 C-3 0 -3 0 0 0 Z " fill="#D5E1E6" transform="translate(244,136)"/>
<path d="M0 0 C-0.33 0.99 -0.66 1.98 -1 3 C-0.01 3.33 0.98 3.66 2 4 C1.67 5.32 1.34 6.64 1 8 C1 7.34 1 6.68 1 6 C0.05125 6.04125 -0.8975 6.0825 -1.875 6.125 C-5 6 -5 6 -7 4 C-6.34 4 -5.68 4 -5 4 C-5 3.34 -5 2.68 -5 2 C-2 0 -2 0 0 0 Z " fill="#95A3AC" transform="translate(275,113)"/>
<path d="M0 0 C0.66 0.33 1.32 0.66 2 1 C-1 3 -1 3 -4 3 C-4.33 3.99 -4.66 4.98 -5 6 C-6.84765625 6.73046875 -6.84765625 6.73046875 -9.0625 7.1875 C-9.79597656 7.34605469 -10.52945313 7.50460938 -11.28515625 7.66796875 C-12.13400391 7.83232422 -12.13400391 7.83232422 -13 8 C-10.61664713 5.32561064 -8.12963852 3.84841988 -4.9375 2.25 C-4.05964844 1.80140625 -3.18179688 1.3528125 -2.27734375 0.890625 C-1.52582031 0.59671875 -0.77429688 0.3028125 0 0 Z " fill="#476176" transform="translate(160,58)"/>
<path d="M0 0 C0.33 1.32 0.66 2.64 1 4 C-2.70126859 6.46751239 -4.62223532 6.30721156 -9 6 C-11.4375 5 -11.4375 5 -13 4 C-10.45297384 2.72648692 -9.5717055 3.19808075 -6.875 3.9375 C-5.78832031 4.22947266 -5.78832031 4.22947266 -4.6796875 4.52734375 C-4.12539062 4.68332031 -3.57109375 4.83929688 -3 5 C-3 3.68 -3 2.36 -3 1 C-2.01 0.67 -1.02 0.34 0 0 Z " fill="#D2DAE0" transform="translate(195,211)"/>
<path d="M0 0 C-0.66 0 -1.32 0 -2 0 C-2.33 0.99 -2.66 1.98 -3 3 C-5.5625 4.1875 -5.5625 4.1875 -8 5 C-8.33 3.68 -8.66 2.36 -9 1 C-5.57367167 -0.61798838 -3.61944899 -1.34053666 0 0 Z " fill="#1A718F" transform="translate(242,131)"/>
<path d="M0 0 C0.66 0.33 1.32 0.66 2 1 C1.6875 2.875 1.6875 2.875 1 5 C-2 7 -2 7 -4.0625 6.8125 C-6 6 -6 6 -8 3 C-6.576875 3.0928125 -6.576875 3.0928125 -5.125 3.1875 C-3.578125 3.0946875 -3.578125 3.0946875 -2 3 C-1.34 2.01 -0.68 1.02 0 0 Z " fill="#CBD5DA" transform="translate(119,123)"/>
<path d="M0 0 C0.99 0.33 1.98 0.66 3 1 C1.55609075 4.80666984 -0.34952803 6.26602582 -4 8 C-4.66 7.67 -5.32 7.34 -6 7 C-4.02 4.69 -2.04 2.38 0 0 Z " fill="#25435C" transform="translate(132,78)"/>
<path d="M0 0 C0.66 0 1.32 0 2 0 C2.33 3.3 2.66 6.6 3 10 C1.68 9.01 0.36 8.02 -1 7 C-0.67 4.69 -0.34 2.38 0 0 Z " fill="#113653" transform="translate(169,196)"/>
<path d="M0 0 C2 2 2 2 2.1953125 4.1640625 C2.17210937 4.97617188 2.14890625 5.78828125 2.125 6.625 C2.10695312 7.44226563 2.08890625 8.25953125 2.0703125 9.1015625 C2.03550781 10.04128906 2.03550781 10.04128906 2 11 C-1.76624671 12.25541557 -3.37188934 11.37061958 -7 10 C-7 9.67 -7 9.34 -7 9 C-4.36 9 -1.72 9 1 9 C0.67 6.03 0.34 3.06 0 0 Z " fill="#465B6D" transform="translate(212,113)"/>
<path d="M0 0 C1.98 0 3.96 0 6 0 C6.99 1.98 7.98 3.96 9 6 C8.34 6.66 7.68 7.32 7 8 C6.34 7.67 5.68 7.34 5 7 C4.375 3.9375 4.375 3.9375 4 1 C2.68 1.33 1.36 1.66 0 2 C0 1.34 0 0.68 0 0 Z " fill="#1B3C58" transform="translate(245,106)"/>
<path d="M0 0 C1.22589844 0.29197266 1.22589844 0.29197266 2.4765625 0.58984375 C3.41628906 0.82380859 3.41628906 0.82380859 4.375 1.0625 C4.375 1.7225 4.375 2.3825 4.375 3.0625 C2.395 3.0625 0.415 3.0625 -1.625 3.0625 C-1.625 2.4025 -1.625 1.7425 -1.625 1.0625 C-2.615 1.0625 -3.605 1.0625 -4.625 1.0625 C-4.625 1.7225 -4.625 2.3825 -4.625 3.0625 C-5.285 3.0625 -5.945 3.0625 -6.625 3.0625 C-6.625 2.0725 -6.625 1.0825 -6.625 0.0625 C-3.99249612 -1.25375194 -2.82320944 -0.68563658 0 0 Z " fill="#153550" transform="translate(317.625,154.9375)"/>
<path d="M0 0 C-0.8125 2.9375 -0.8125 2.9375 -2 6 C-2.99 6.33 -3.98 6.66 -5 7 C-5.33 8.32 -5.66 9.64 -6 11 C-6 8.03 -6 5.06 -6 2 C-5.67 2.99 -5.34 3.98 -5 5 C-4.34 5 -3.68 5 -3 5 C-3.33 3.68 -3.66 2.36 -4 1 C-2 0 -2 0 0 0 Z " fill="#0D2E49" transform="translate(154,147)"/>
<path d="M0 0 C0.66 0 1.32 0 2 0 C2 1.65 2 3.3 2 5 C3.32 5.33 4.64 5.66 6 6 C4.35 6 2.7 6 1 6 C1 8.31 1 10.62 1 13 C0.67 13 0.34 13 0 13 C-0.19551338 11.39679026 -0.38111983 9.79237014 -0.5625 8.1875 C-0.71912109 6.84751953 -0.71912109 6.84751953 -0.87890625 5.48046875 C-1 3 -1 3 0 0 Z " fill="#D8DFE5" transform="translate(214,110)"/>
<path d="M0 0 C1.0625 1.875 1.0625 1.875 2 4 C1.67 4.66 1.34 5.32 1 6 C-1.50390625 6.4140625 -1.50390625 6.4140625 -4.5625 6.625 C-5.57441406 6.69976562 -6.58632812 6.77453125 -7.62890625 6.8515625 C-8.41136719 6.90054688 -9.19382813 6.94953125 -10 7 C-9.67 6.34 -9.34 5.68 -9 5 C-6.93359375 4.3671875 -6.93359375 4.3671875 -4.4375 3.875 C-3.61121094 3.70742187 -2.78492188 3.53984375 -1.93359375 3.3671875 C-0.97646484 3.18542969 -0.97646484 3.18542969 0 3 C0 2.01 0 1.02 0 0 Z " fill="#B5C3C9" transform="translate(187,148)"/>
<path d="M0 0 C1.32 0 2.64 0 4 0 C4 0.66 4 1.32 4 2 C4.99 1.67 5.98 1.34 7 1 C6.67 2.65 6.34 4.3 6 6 C5.01 6 4.02 6 3 6 C2.01 4.02 1.02 2.04 0 0 Z " fill="#1F3E58" transform="translate(149,134)"/>
<path d="M0 0 C0 4.31618166 -2.13270348 5.92789659 -5 9 C-5.66 9 -6.32 9 -7 9 C-7 8.34 -7 7.68 -7 7 C-7.99 6.67 -8.98 6.34 -10 6 C-9.44570312 5.73445312 -8.89140625 5.46890625 -8.3203125 5.1953125 C-7.59585938 4.84210938 -6.87140625 4.48890625 -6.125 4.125 C-5.40570313 3.77695313 -4.68640625 3.42890625 -3.9453125 3.0703125 C-1.84864981 2.03442457 -1.84864981 2.03442457 0 0 Z " fill="#D5DCE0" transform="translate(124,127)"/>
<path d="M0 0 C1.125 3.75 1.125 3.75 0 6 C-0.99 6 -1.98 6 -3 6 C-3.33 7.65 -3.66 9.3 -4 11 C-4.33 11 -4.66 11 -5 11 C-4.50769231 4.6 -4.50769231 4.6 -1.9375 1.5625 C-0.9784375 0.7890625 -0.9784375 0.7890625 0 0 Z " fill="#BDC7CE" transform="translate(189,90)"/>
<path d="M0 0 C0 3.10551666 -0.5393715 4.35261084 -2 7 C-2.66 7 -3.32 7 -4 7 C-4 6.34 -4 5.68 -4 5 C-4.66 5 -5.32 5 -6 5 C-6.33 5.66 -6.66 6.32 -7 7 C-6.67 5.02 -6.34 3.04 -6 1 C-5.34 1 -4.68 1 -4 1 C-4 1.66 -4 2.32 -4 3 C-2.68 2.01 -1.36 1.02 0 0 Z " fill="#0E324E" transform="translate(143,124)"/>
<path d="M0 0 C1.093125 0.226875 2.18625 0.45375 3.3125 0.6875 C2.3225 1.0175 1.3325 1.3475 0.3125 1.6875 C0.3125 2.3475 0.3125 3.0075 0.3125 3.6875 C-1.9975 3.3575 -4.3075 3.0275 -6.6875 2.6875 C-4.58035839 -0.41123767 -3.86755884 -0.32775922 0 0 Z " fill="#D7DFE4" transform="translate(207.6875,123.3125)"/>
<path d="M0 0 C1.32 0.33 2.64 0.66 4 1 C2.84826645 3.46800047 1.95216435 5.04783565 0 7 C-0.99 6.67 -1.98 6.34 -3 6 C-2.34 6 -1.68 6 -1 6 C-0.67 4.02 -0.34 2.04 0 0 Z " fill="#163752" transform="translate(122,123)"/>
<path d="M0 0 C0.33 0.66 0.66 1.32 1 2 C-0.32 2.99 -1.64 3.98 -3 5 C-3.66 3.68 -4.32 2.36 -5 1 C-3.35 0.67 -1.7 0.34 0 0 Z M-8 2 C-7.34 2 -6.68 2 -6 2 C-6 2.66 -6 3.32 -6 4 C-5.34 4 -4.68 4 -4 4 C-4 4.66 -4 5.32 -4 6 C-4.99 5.67 -5.98 5.34 -7 5 C-7.33 4.01 -7.66 3.02 -8 2 Z " fill="#0F314C" transform="translate(133,117)"/>
<path d="M0 0 C0.66 0.33 1.32 0.66 2 1 C2.33 1.99 2.66 2.98 3 4 C1.68 4 0.36 4 -1 4 C-1 4.66 -1 5.32 -1 6 C-2.98 6 -4.96 6 -7 6 C-4.74259377 3.66475218 -2.7194239 1.81294927 0 0 Z " fill="#D0E1E5" transform="translate(312,78)"/>
<path d="M0 0 C0.66 0.33 1.32 0.66 2 1 C-3.30311615 6.74504249 -3.30311615 6.74504249 -7 7 C-7.66 6.67 -8.32 6.34 -9 6 C-6.03 4.02 -3.06 2.04 0 0 Z " fill="#CDE1E8" transform="translate(327,69)"/>
<path d="M0 0 C0.66 0.33 1.32 0.66 2 1 C1.67 1.66 1.34 2.32 1 3 C3.475 3.99 3.475 3.99 6 5 C6 5.66 6 6.32 6 7 C0.25 5.375 0.25 5.375 -2 2 C-1.34 2 -0.68 2 0 2 C0 1.34 0 0.68 0 0 Z " fill="#244158" transform="translate(146,202)"/>
<path d="M0 0 C0.66 1.32 1.32 2.64 2 4 C-0.97 6.475 -0.97 6.475 -4 9 C-4 5.00095031 -2.27413033 3.19799578 0 0 Z " fill="#D3DBE0" transform="translate(199,76)"/>
<path d="M0 0 C1.32 0.66 2.64 1.32 4 2 C2.25 3.5625 2.25 3.5625 0 5 C-2.25 4.6875 -2.25 4.6875 -4 4 C-2.68 2.68 -1.36 1.36 0 0 Z " fill="#24435D" transform="translate(140,70)"/>
<path d="M0 0 C1.65 0.33 3.3 0.66 5 1 C0.25 5.875 0.25 5.875 -2 7 C-1.125 2.25 -1.125 2.25 0 0 Z " fill="#DEEAEE" transform="translate(338,46)"/>
<path d="M0 0 C0.6875 1.6875 0.6875 1.6875 1 4 C-0.3125 6.5625 -0.3125 6.5625 -2 9 C-2.66 9.99 -3.32 10.98 -4 12 C-3.5317879 7.22423661 -2.75668002 3.95523655 0 0 Z " fill="#BAC5CE" transform="translate(190,129)"/>
<path d="M0 0 C2.64 0.66 5.28 1.32 8 2 C8 2.33 8 2.66 8 3 C6.35 3 4.7 3 3 3 C3.33 3.99 3.66 4.98 4 6 C3.34 6 2.68 6 2 6 C2 5.34 2 4.68 2 4 C1.01 4.33 0.02 4.66 -1 5 C-0.67 3.35 -0.34 1.7 0 0 Z " fill="#2D4C66" transform="translate(125,115)"/>
<path d="M0 0 C2.64 0 5.28 0 8 0 C8.33 0.66 8.66 1.32 9 2 C8.34 2 7.68 2 7 2 C6.67 2.99 6.34 3.98 6 5 C5.7525 4.360625 5.505 3.72125 5.25 3.0625 C4.18437567 0.81258459 4.18437567 0.81258459 1.875 0.25 C0.946875 0.12625 0.946875 0.12625 0 0 Z " fill="#176D89" transform="translate(300,75)"/>
<path d="M0 0 C0.66 0 1.32 0 2 0 C2 0.66 2 1.32 2 2 C1.34 2.66 0.68 3.32 0 4 C-0.69748583 5.31747324 -1.36959957 6.64914193 -2 8 C-2.66 8 -3.32 8 -4 8 C-2.25 2.25 -2.25 2.25 0 0 Z " fill="#CDDFE6" transform="translate(340,60)"/>
<path d="M0 0 C-1.32 0.33 -2.64 0.66 -4 1 C-4 1.66 -4 2.32 -4 3 C-2.35 3 -0.7 3 1 3 C1 3.33 1 3.66 1 4 C-1.64 4 -4.28 4 -7 4 C-7 3.01 -7 2.02 -7 1 C-4.53721199 -0.231394 -2.7204945 -0.07159196 0 0 Z " fill="#A8B6BF" transform="translate(272,47)"/>
<path d="M0 0 C3.63 0 7.26 0 11 0 C10.34 1.32 9.68 2.64 9 4 C8.67 3.01 8.34 2.02 8 1 C3.545 1.495 3.545 1.495 -1 2 C-0.67 1.34 -0.34 0.68 0 0 Z " fill="#4E8B9F" transform="translate(344,46)"/>
<path d="M0 0 C0.33 0.99 0.66 1.98 1 3 C-0.98 4.98 -2.96 6.96 -5 9 C-5.66 8.67 -6.32 8.34 -7 8 C-4.69 5.36 -2.38 2.72 0 0 Z " fill="#C9CACC" transform="translate(269,192)"/>
<path d="M0 0 C2.97 0 5.94 0 9 0 C8.67 0.66 8.34 1.32 8 2 C2.55072464 3.27536232 2.55072464 3.27536232 0 2 C0 1.34 0 0.68 0 0 Z " fill="#DEE5E8" transform="translate(141,165)"/>
<path d="M0 0 C3.63 0.33 7.26 0.66 11 1 C11 1.33 11 1.66 11 2 C8.03 2 5.06 2 2 2 C1.67 2.66 1.34 3.32 1 4 C0.67 2.68 0.34 1.36 0 0 Z " fill="#9DACB6" transform="translate(137,132)"/>
<path d="M0 0 C0.66 0.33 1.32 0.66 2 1 C1.34 2.32 0.68 3.64 0 5 C-1.98 5 -3.96 5 -6 5 C-5.195625 4.360625 -4.39125 3.72125 -3.5625 3.0625 C-1.7249496 1.59396498 -1.7249496 1.59396498 0 0 Z " fill="#378099" transform="translate(250,120)"/>
<path d="M0 0 C1.65 0 3.3 0 5 0 C5 1.65 5 3.3 5 5 C3.68 4.67 2.36 4.34 1 4 C0.67 2.68 0.34 1.36 0 0 Z " fill="#1B3D5A" transform="translate(272,121)"/>
<path d="M0 0 C0.33 0 0.66 0 1 0 C1 1.65 1 3.3 1 5 C2.32 4.67 3.64 4.34 5 4 C4.34 5.65 3.68 7.3 3 9 C2.67 8.34 2.34 7.68 2 7 C1.34 7 0.68 7 0 7 C0 4.69 0 2.38 0 0 Z " fill="#C0CAD2" transform="translate(265,101)"/>
<path d="M0 0 C1.5625 1.6875 1.5625 1.6875 3 4 C2.6875 6.75 2.6875 6.75 2 9 C1.34 9 0.68 9 0 9 C0 6.03 0 3.06 0 0 Z " fill="#3C596F" transform="translate(268,96)"/>
<path d="M0 0 C0.6875 1.8125 0.6875 1.8125 1 4 C-0.3125 5.75 -0.3125 5.75 -2 7 C-2.66 7 -3.32 7 -4 7 C-3.67 5.02 -3.34 3.04 -3 1 C-2.34 1.33 -1.68 1.66 -1 2 C-0.67 1.34 -0.34 0.68 0 0 Z " fill="#73A4B8" transform="translate(333,70)"/>
<path d="M0 0 C1.65 0.33 3.3 0.66 5 1 C3.68 2.32 2.36 3.64 1 5 C0.34 4.67 -0.32 4.34 -1 4 C-0.67 2.68 -0.34 1.36 0 0 Z " fill="#E9EDED" transform="translate(139,66)"/>
<path d="M0 0 C0 0.99 0 1.98 0 3 C-1.65 3.66 -3.3 4.32 -5 5 C-5.66 4.34 -6.32 3.68 -7 3 C-2.25 0 -2.25 0 0 0 Z " fill="#2E4B65" transform="translate(208,163)"/>
<path d="M0 0 C1.98 0 3.96 0 6 0 C6 0.99 6 1.98 6 3 C4.02 3.33 2.04 3.66 0 4 C0.66 3.34 1.32 2.68 2 2 C1.34 1.34 0.68 0.68 0 0 Z " fill="#D4DDE2" transform="translate(323,155)"/>
<path d="M0 0 C0.66 0 1.32 0 2 0 C2.12375 0.78375 2.2475 1.5675 2.375 2.375 C2.79117993 5.14057822 2.79117993 5.14057822 5 7 C3.35 6.67 1.7 6.34 0 6 C0 4.02 0 2.04 0 0 Z " fill="#C4CED7" transform="translate(314,148)"/>
<path d="M0 0 C0.66 1.32 1.32 2.64 2 4 C2.66 4 3.32 4 4 4 C4.33 3.34 4.66 2.68 5 2 C5 2.99 5 3.98 5 5 C3.35 5.33 1.7 5.66 0 6 C-1.125 2.25 -1.125 2.25 0 0 Z " fill="#21435D" transform="translate(182,146)"/>
<path d="M0 0 C0.66 0 1.32 0 2 0 C0.60667426 3.36720387 -0.9789286 4.9859524 -4 7 C-4 6.01 -4 5.02 -4 4 C-3.01 3.67 -2.02 3.34 -1 3 C-0.67 2.01 -0.34 1.02 0 0 Z " fill="#8CB5C4" transform="translate(296,87)"/>
</svg>
